<?xml version="1.0" encoding="UTF-8" standalone="no"?>
<!-- Created with Inkscape (http://www.inkscape.org/) -->

<svg
   width="171.26572"
   height="45.40094"
   viewBox="0 0 45.314053 12.012332"
   version="1.1"
   id="svg1"
   inkscape:version="1.4 (e7c3feb100, 2024-10-09)"
   sodipodi:docname="awwbaby.svg"
   xml:space="preserve"
   xmlns:inkscape="http://www.inkscape.org/namespaces/inkscape"
   xmlns:sodipodi="http://sodipodi.sourceforge.net/DTD/sodipodi-0.dtd"
   xmlns="http://www.w3.org/2000/svg"
   xmlns:svg="http://www.w3.org/2000/svg"><sodipodi:namedview
     id="namedview1"
     pagecolor="#ffffff"
     bordercolor="#000000"
     borderopacity="0"
     inkscape:showpageshadow="2"
     inkscape:pageopacity="0.0"
     inkscape:pagecheckerboard="false"
     inkscape:deskcolor="#555555"
     inkscape:document-units="px"
     inkscape:zoom="1.5518659"
     inkscape:cx="301.57245"
     inkscape:cy="536.12881"
     inkscape:window-width="1908"
     inkscape:window-height="994"
     inkscape:window-x="0"
     inkscape:window-y="0"
     inkscape:window-maximized="1"
     inkscape:current-layer="layer1"><inkscape:page
       x="0"
       y="0"
       width="45.314053"
       height="12.012332"
       id="page2"
       margin="0"
       bleed="0" /></sodipodi:namedview><defs
     id="defs1" /><g
     inkscape:label="Layer 1"
     inkscape:groupmode="layer"
     id="layer1"
     transform="translate(-33.010674,-193.04214)"><path
       d="m 57.857751,193.04214 c -0.33881,0 -0.700132,0.0869 -0.935344,0.40049 -8.65e-4,8.6e-4 -0.0017,0.002 -0.0026,0.003 -0.399902,0.54362 -1.101761,1.78667 -1.755449,2.99723 0.03057,-0.16778 0.13901,-0.36244 0.13901,-0.51831 0,-0.32709 -0.137695,-0.61171 -0.334347,-0.84905 -0.196651,-0.23733 -0.473143,-0.44803 -0.841292,-0.44803 -0.138206,0 -0.26578,0.0236 -0.387056,0.0915 -0.121277,0.0679 -0.265101,0.20154 -0.265101,0.42685 0,0.1945 0.100341,0.27861 0.19017,0.34313 -0.02978,0.10146 -0.102845,0.36865 -0.302824,0.75499 -0.233965,0.452 -0.560115,0.99259 -0.905371,1.50637 -0.345257,0.51377 -0.711967,1.00296 -1.02061,1.34979 -0.0204,0.0229 -0.03283,0.0306 -0.05271,0.0522 0.07328,-0.29181 0.105216,-0.51932 0.267167,-0.91364 0.261501,-0.6367 0.607547,-1.30928 0.891419,-1.70791 0.06089,-0.0853 0.0856,-0.19114 0.06873,-0.29455 -0.07037,-0.4222 -0.387344,-0.58376 -0.674894,-0.72244 -0.28755,-0.13868 -0.59705,-0.22789 -0.89917,-0.22789 -0.137098,0 -0.333369,-3e-4 -0.522965,0.17932 -0.159076,0.13654 -0.239681,0.27756 -0.350883,0.47438 -0.116774,0.20669 -0.241465,0.45972 -0.366903,0.74001 -0.238167,0.53218 -0.469884,1.15625 -0.637687,1.71669 -0.220486,0.29689 -0.429126,0.53947 -0.620634,0.74621 0.07362,-0.29099 0.104856,-0.51366 0.2651,-0.90382 0.2615,-0.6367 0.60703,-1.30928 0.890902,-1.70791 0.06089,-0.0853 0.0856,-0.19114 0.06873,-0.29455 -0.07037,-0.4222 -0.386311,-0.58376 -0.673861,-0.72244 -0.28755,-0.13868 -0.598083,-0.22789 -0.900204,-0.22789 -0.13751,0 -0.334381,-0.002 -0.524515,0.17932 -0.05194,0.0458 -0.07397,0.12178 -0.114205,0.17156 -0.05585,-0.19692 -0.09066,-0.40431 -0.220659,-0.56121 -0.19665,-0.23733 -0.473143,-0.44803 -0.841292,-0.44803 -0.138206,0 -0.26578,0.0236 -0.387056,0.0915 -0.121277,0.0679 -0.2651,0.20154 -0.2651,0.42685 0,0.1945 0.10034,0.27861 0.190169,0.34313 -0.02979,0.10146 -0.102845,0.36865 -0.302824,0.75499 -0.233966,0.452 -0.560114,0.99259 -0.905371,1.50637 -0.345257,0.51377 -0.711966,1.00296 -1.02061,1.34979 -0.0204,0.0229 -0.03283,0.03 -0.05271,0.0517 0.07328,-0.29181 0.105216,-0.51881 0.267167,-0.91312 0.261501,-0.6367 0.607547,-1.30928 0.891419,-1.70791 0.06089,-0.0853 0.0856,-0.19115 0.06873,-0.29456 -0.07037,-0.42219 -0.387345,-0.58376 -0.674895,-0.72243 -0.287549,-0.13868 -0.59705,-0.2279 -0.89917,-0.2279 -0.137097,0 -0.333369,-2.9e-4 -0.522965,0.17932 -0.159076,0.13655 -0.239681,0.27757 -0.350883,0.47439 -0.116774,0.20669 -0.241464,0.45972 -0.366903,0.74001 -0.238166,0.53218 -0.470402,1.15624 -0.638204,1.71669 -0.220486,0.29689 -0.428609,0.53947 -0.620117,0.74621 0.07362,-0.29099 0.104339,-0.51366 0.264584,-0.90382 0.2615,-0.6367 0.607547,-1.30928 0.891418,-1.70791 0.06089,-0.0853 0.0856,-0.19115 0.06873,-0.29456 -0.07037,-0.42219 -0.386311,-0.58376 -0.673861,-0.72243 -0.28755,-0.13868 -0.598083,-0.2279 -0.900203,-0.2279 -0.137511,0 -0.334382,-0.002 -0.524516,0.17932 -0.207432,0.18307 -0.304125,0.38752 -0.45682,0.68523 -0.08769,-0.0815 -0.180532,-0.15939 -0.275952,-0.20929 -0.247511,-0.12943 -0.520365,-0.19792 -0.792716,-0.19792 -0.05962,0 -0.124812,0.0482 -0.185002,0.0553 -0.126812,-0.132 -0.251952,-0.27194 -0.47439,-0.4346 -0.303829,-0.22217 -0.684567,-0.4408 -1.141015,-0.4408 -0.994708,0 -1.852786,0.81493 -2.525428,1.73426 -0.67264,0.91934 -1.163236,1.9653 -1.163236,2.8143 0,0.66472 0.341246,1.22248 0.726054,1.61696 0.192404,0.19724 0.398149,0.35649 0.600997,0.47284 0.202848,0.11635 0.390755,0.20153 0.627868,0.20153 0.41487,0 0.675469,-0.25713 0.946196,-0.54466 0.145906,-0.15497 0.29057,-0.37433 0.435632,-0.56845 0.330126,0.57183 0.813438,1.04594 1.506885,1.04594 0.409878,0 0.686245,-0.25043 0.947746,-0.52452 0.101319,-0.1062 0.186074,-0.25013 0.281636,-0.3731 0.09219,0.10459 0.167779,0.22259 0.271818,0.31522 0.434865,0.38718 0.959843,0.67593 1.51722,0.67593 0.197162,0 0.356654,-0.0879 0.477491,-0.18655 0.120836,-0.0986 0.217896,-0.21592 0.312642,-0.34933 0.0953,-0.13421 0.187951,-0.33009 0.280603,-0.49662 0.166158,0.1922 0.294899,0.41536 0.499711,0.56328 0.380126,0.27453 0.81015,0.46922 1.263489,0.46922 0.256146,0 0.433522,-0.10965 0.6196,-0.23978 0.186078,-0.13013 0.375522,-0.30054 0.573609,-0.50488 0.388378,-0.40062 0.807987,-0.9348 1.204577,-1.51773 0.004,0.0437 0.0088,0.11028 0.0088,0.0791 -4.7e-5,0.0206 0.0015,0.0411 0.0047,0.0615 0.08897,0.56052 0.442601,1.05872 0.877466,1.4459 0.434865,0.38718 0.959326,0.67593 1.516703,0.67593 0.197162,0 0.35717,-0.0879 0.478007,-0.18655 0.120838,-0.0986 0.21738,-0.21592 0.312126,-0.34933 0.0953,-0.13421 0.187951,-0.33009 0.280603,-0.49662 0.166158,0.1922 0.294899,0.41536 0.499711,0.56328 0.380126,0.27453 0.810666,0.46922 1.264005,0.46922 0.256147,0 0.433006,-0.10965 0.619084,-0.23978 0.186078,-0.13013 0.376039,-0.30054 0.574125,-0.50488 0.372817,-0.38457 0.773605,-0.90184 1.156002,-1.45727 -0.09876,0.2699 -0.251664,0.57725 -0.251664,0.81132 0,0.46113 0.284232,0.79991 0.559656,1.01389 0.137711,0.10699 0.279943,0.18795 0.415478,0.24701 0.135536,0.0591 0.247938,0.10335 0.414962,0.10335 0.223923,0 0.405693,-0.12279 0.513147,-0.25889 0.107453,-0.13611 0.166398,-0.29457 0.166398,-0.47439 0,-0.0112 0.0086,-0.0618 0.01757,-0.11783 0.0015,-0.004 0.08501,-0.15547 0.108004,-0.20257 0.110498,0.16346 0.173734,0.34452 0.31936,0.48576 0.330563,0.32061 0.774852,0.56792 1.294495,0.56792 0.486015,0 0.913825,-0.25613 1.294494,-0.59944 0.380669,-0.34331 0.725149,-0.79294 1.025261,-1.28106 0.0028,-0.005 0.0039,-0.009 0.0067,-0.0139 0.10522,0.48127 0.330074,0.91163 0.630969,1.22008 0.192404,0.19724 0.398149,0.35649 0.600997,0.47284 0.202848,0.11635 0.391271,0.20154 0.628385,0.20154 0.414869,0 0.674435,-0.25714 0.945162,-0.54467 0.145848,-0.1549 0.290111,-0.37442 0.435116,-0.56844 0.330094,0.57201 0.813803,1.04593 1.507401,1.04593 0.328361,0 0.564283,-0.17462 0.782381,-0.37931 0.03156,0.028 0.05608,0.0714 0.08785,0.0961 0.137712,0.10699 0.279943,0.18796 0.415479,0.24702 0.135535,0.0591 0.248971,0.10335 0.415995,0.10335 0.223923,0 0.405694,-0.12279 0.513147,-0.2589 0.107453,-0.13611 0.166398,-0.29456 0.166398,-0.47439 0,-0.0112 0.0076,-0.0618 0.01654,-0.11782 0.0015,-0.004 0.08552,-0.15547 0.108521,-0.20257 0.110534,0.16353 0.174183,0.34445 0.319877,0.48576 0.330564,0.3206 0.773817,0.56792 1.293461,0.56792 0.486014,0 0.913826,-0.25614 1.294495,-0.59945 0.376015,-0.33911 0.716379,-0.78435 1.013891,-1.26555 0.0952,0.42979 0.289875,0.835 0.593763,1.15393 0.395576,0.41516 0.915013,0.72399 1.487247,0.72399 0.03446,0 0.04184,-0.0238 0.07183,-0.0279 -0.0214,0.0308 -0.03735,0.0817 -0.05891,0.11162 -0.536994,0.74547 -1.085436,1.16478 -1.665531,1.16478 -0.168737,0 -0.234623,-0.0523 -0.298173,-0.13177 -0.06356,-0.0794 -0.09767,-0.20735 -0.09767,-0.26407 0,-0.0365 -0.0052,-0.004 -0.0021,-0.0103 0.02776,-0.0551 0.04227,-0.11602 0.04238,-0.17776 0,-0.20189 -0.1188,-0.29364 -0.173633,-0.3328 -0.05483,-0.0392 -0.09034,-0.0516 -0.12299,-0.0625 -0.0653,-0.0218 -0.117127,-0.0279 -0.181384,-0.0279 -0.447846,0 -0.894002,0.42075 -0.894002,1.1622 0,0.95166 0.874347,1.87482 2.251025,1.87482 1.015791,0 1.859617,-0.53314 2.530595,-1.28002 0.670978,-0.74689 1.202476,-1.71685 1.669149,-2.70991 0.466673,-0.99307 0.866445,-2.01115 1.241784,-2.84066 0.37534,-0.8295 0.761049,-1.46682 1.016993,-1.65933 0.09969,-0.0748 0.158437,-0.19213 0.158646,-0.31677 0,-0.38489 -0.247886,-0.6346 -0.516764,-0.81752 -0.268878,-0.18293 -0.604329,-0.30541 -0.968933,-0.30541 -0.314173,0 -0.669263,0.13822 -0.870748,0.45165 v 5.2e-4 c 0,0 -0.306715,0.48436 -0.63562,1.07177 -0.503458,0.62866 -1.122771,1.36689 -1.667082,1.94045 -0.156104,0.16449 -0.279045,0.26854 -0.416512,0.39842 0.112314,-0.21703 0.225832,-0.43654 0.379305,-0.68729 0.415832,-0.67942 0.942196,-1.4177 1.335836,-1.87482 0.06181,-0.0721 0.09573,-0.16395 0.0956,-0.2589 0,-0.21891 -0.105323,-0.38902 -0.218074,-0.51212 -0.112756,-0.12309 -0.244625,-0.2147 -0.385506,-0.29145 -0.281768,-0.1535 -0.593782,-0.25115 -0.907955,-0.25115 -0.173621,0 -0.332781,0.0397 -0.473356,0.12402 -0.01435,0.008 -0.02816,0.0178 -0.04134,0.0279 -0.213806,0.16846 -0.376208,0.40211 -0.612365,0.73846 -0.194209,0.2766 -0.411807,0.62466 -0.623735,0.97307 -0.0041,-0.51215 -0.277416,-0.95072 -0.617016,-1.27434 -0.342128,-0.32603 -0.756477,-0.56224 -1.214397,-0.56224 -0.12855,0 -0.231871,0.0717 -0.346748,0.10903 0.199876,-0.30414 0.472162,-0.82043 0.622184,-1.01802 0.05238,-0.0688 0.08087,-0.1528 0.08113,-0.23926 0,-0.34765 -0.239164,-0.61497 -0.482141,-0.75241 -0.242973,-0.13744 -0.516335,-0.19534 -0.788583,-0.19534 -0.338807,0 -0.700133,0.0869 -0.935343,0.40049 -5.2e-4,8.6e-4 -0.001,0.002 -0.0016,0.003 -0.420701,0.57189 -1.161857,1.87193 -1.846916,3.15278 -0.04164,-0.32747 -0.275159,-0.53881 -0.501778,-0.65732 -0.247511,-0.12943 -0.521399,-0.19792 -0.79375,-0.19792 -0.05962,0 -0.124294,0.0482 -0.184485,0.0553 -0.126812,-0.13201 -0.251952,-0.27194 -0.47439,-0.4346 -0.303829,-0.22218 -0.685084,-0.4408 -1.141532,-0.4408 -0.994708,0 -1.851753,0.81492 -2.524394,1.73426 -0.03535,0.0483 -0.05355,0.10142 -0.08785,0.15038 -0.05775,-0.43566 -0.275142,-0.82151 -0.574642,-1.10691 -0.342129,-0.32603 -0.756478,-0.56224 -1.214396,-0.56224 -0.128549,0 -0.231869,0.0717 -0.346749,0.10904 0.199878,-0.30415 0.472164,-0.82044 0.622185,-1.01803 0.05238,-0.0688 0.08087,-0.1528 0.08113,-0.23926 0,-0.34765 -0.238649,-0.61497 -0.481625,-0.75241 -0.242975,-0.13744 -0.515817,-0.19534 -0.788065,-0.19534 z m -5.17e-4,0.39687 c 0.416471,0 0.873332,0.20157 0.873332,0.55087 -0.550817,0.72547 -1.450631,2.17624 -2.202967,3.6003 0.752336,-1.03446 1.665588,-2.05569 2.243274,-2.05569 0.591121,0 1.437639,0.72561 1.437639,1.45108 0,1.33002 -1.611919,4.37957 -2.955375,4.37957 -0.79264,0 -1.370487,-0.73852 -1.652613,-1.42368 -0.241822,0.40304 -0.416516,0.72503 -0.456819,0.87281 -0.01344,0.0806 -0.02687,0.1478 -0.02687,0.21498 0,0.16121 -0.120939,0.33589 -0.282153,0.33589 -0.241823,0 -0.994255,-0.38918 -0.994255,-0.96686 0,-0.91355 2.539464,-5.54861 3.399276,-6.71742 0.120911,-0.16122 0.362276,-0.24185 0.617533,-0.24185 z m 11.195182,0 c 0.416472,0 0.873332,0.20157 0.873332,0.55087 -0.550816,0.72547 -1.451147,2.17624 -2.203483,3.6003 0.752336,-1.03446 1.666105,-2.05569 2.24379,-2.05569 0.591124,0 1.437122,0.72561 1.437122,1.45108 0,1.33002 -1.611918,4.37957 -2.955375,4.37957 -0.792641,0 -1.370487,-0.73852 -1.652612,-1.42368 -0.241822,0.40304 -0.416517,0.72503 -0.45682,0.87281 -0.01343,0.0806 -0.02687,0.1478 -0.02687,0.21498 0,0.16121 -0.120938,0.33589 -0.282153,0.33589 -0.191443,0 -0.697496,-0.24621 -0.902271,-0.63458 -0.277416,0.32704 -0.557161,0.5674 -0.798917,0.5674 -0.712032,0 -1.303295,-0.63104 -1.46451,-1.3565 -0.523949,0.7792 -1.047518,1.42368 -1.423686,1.42368 -0.44334,0 -1.558561,-0.84604 -1.558561,-1.89394 0,-1.34345 1.800035,-4.15168 3.291272,-4.15168 0.631424,0 1.289863,0.67181 1.491382,0.9002 0.06717,-0.0537 0.188113,-0.0806 0.309025,-0.0806 0.389602,0 0.927075,0.22844 0.927075,0.53744 -0.79264,0.91355 -1.773535,2.45881 -1.773535,2.98276 0,0.10748 0.04032,0.17467 0.147794,0.17467 0.388316,0 0.912074,-0.54384 1.338937,-1.06919 0.799257,-1.75028 2.217277,-4.26322 2.821016,-5.08393 0.12091,-0.16121 0.362796,-0.24184 0.61805,-0.24184 z m -22.698872,1.37615 c 0.02584,0 0.07365,0.006 0.129707,0.0434 0.0045,0.003 0.0065,0.0194 0.01137,0.0227 -0.05117,-0.0158 -0.09588,-0.0662 -0.141076,-0.0662 z m 7.639326,0 c 0.02584,0 0.07366,0.006 0.129708,0.0434 0.0045,0.003 0.0065,0.0194 0.01137,0.0227 -0.05117,-0.0158 -0.09588,-0.0662 -0.141078,-0.0662 z m -7.504968,0.20929 c 0.389602,0 0.779281,0.51008 0.779281,0.89968 0,1.63902 -2.727047,5.46789 -3.559989,5.46789 -0.658294,0 -1.477982,-0.6176 -1.840715,-1.30277 -0.376168,0.75234 -0.698694,1.30277 -0.994254,1.30277 -0.631637,0 -1.413283,-0.57844 -1.789555,-1.23559 -0.401413,0.60396 -0.858775,1.14153 -1.228349,1.14153 -0.712032,0 -1.303295,-0.63104 -1.46451,-1.3565 -0.523948,0.7792 -1.047518,1.42368 -1.423686,1.42368 -0.443341,0 -1.558561,-0.84604 -1.558561,-1.89394 0,-1.34345 1.800035,-4.15168 3.291272,-4.15168 0.631424,0 1.289863,0.67181 1.491382,0.9002 0.06717,-0.0537 0.188114,-0.0806 0.309025,-0.0806 0.389602,0 0.927075,0.22844 0.927075,0.53744 -0.79264,0.91355 -1.773535,2.45881 -1.773535,2.98276 0,0.10748 0.04032,0.17467 0.147794,0.17467 0.320484,0 0.739392,-0.37909 1.116728,-0.80564 0.226526,-1.09381 1.06455,-3.01256 1.377177,-3.27887 0.05374,-0.0537 0.147805,-0.0672 0.255282,-0.0672 0.416471,0 1.128618,0.29562 1.182356,0.61805 -0.631424,0.88668 -1.39733,2.74099 -1.39733,3.41271 0,0.16122 0.04032,0.25529 0.134358,0.25529 0.268692,0 0.833079,-0.60469 1.397331,-1.37046 0.32243,-1.11507 0.994282,-2.62002 1.276408,-2.84841 0.05374,-0.0537 0.147805,-0.0672 0.255281,-0.0672 0.416472,0 1.128619,0.29562 1.182357,0.61805 -0.631424,0.88668 -1.39733,2.74099 -1.39733,3.41271 0,0.16122 0.04032,0.25529 0.134358,0.25529 0.671729,0 3.156913,-3.789 3.156913,-4.60851 0,-0.094 -0.04031,-0.14779 -0.120922,-0.14779 -0.08061,0 -0.120923,-0.0398 -0.120923,-0.0667 0,-0.0537 0.08063,-0.12093 0.255281,-0.12093 z m 7.639327,0 c 0.389603,0 0.779281,0.51008 0.779281,0.89968 0,1.63902 -2.727047,5.46789 -3.55999,5.46789 -0.658293,0 -1.477981,-0.6176 -1.840714,-1.30277 -0.376168,0.75234 -0.698177,1.30277 -0.993738,1.30277 -0.806074,0 -1.867599,-0.94008 -2.001945,-1.78646 0,-0.0403 -0.01344,-0.0806 -0.01344,-0.12092 0,-0.88668 1.074905,-3.42618 1.437639,-3.73517 0.05374,-0.0537 0.147805,-0.0672 0.255281,-0.0672 0.416472,0 1.128102,0.29562 1.18184,0.61805 -0.631425,0.88668 -1.396814,2.74098 -1.396814,3.41271 0,0.16121 0.04032,0.25528 0.134359,0.25528 0.268691,0 0.832562,-0.60469 1.396814,-1.37046 0.322429,-1.11507 0.994282,-2.62002 1.276408,-2.8484 0.05374,-0.0537 0.147805,-0.0672 0.255281,-0.0672 0.416472,0 1.128619,0.29562 1.182357,0.61805 -0.631424,0.88668 -1.397331,2.74098 -1.397331,3.41271 0,0.16121 0.04032,0.25528 0.134359,0.25528 0.671728,0 3.156913,-3.789 3.156913,-4.6085 0,-0.094 -0.04031,-0.1478 -0.120923,-0.1478 -0.08061,0 -0.120922,-0.0398 -0.120922,-0.0667 0,-0.0537 0.08063,-0.12092 0.255281,-0.12092 z m 19.421037,0.48317 c 0.429906,0 1.11466,0.32249 1.11466,0.65836 -0.832943,0.96729 -2.122351,2.98282 -2.122351,3.5605 0,0.10748 0.02688,0.16123 0.120923,0.16123 0.47021,0 1.974657,-1.73335 2.995683,-3.00963 0.335865,-0.60456 0.644922,-1.08831 0.644922,-1.08831 0.12091,-0.18808 0.322484,-0.26871 0.537435,-0.26871 0.537381,0 1.088305,0.38967 1.088305,0.72553 -1.571842,1.18225 -2.700439,8.41034 -6.220292,8.41034 -1.209112,0 -1.85415,-0.76592 -1.85415,-1.47795 0,-0.59112 0.335909,-0.76584 0.497127,-0.76584 0.04028,0 0.08061,0.0134 0.08061,0.0269 -0.0269,0.0537 -0.04031,0.10749 -0.04031,0.1881 0,0.309 0.228466,0.79272 0.792716,0.79272 1.531543,0 2.606129,-2.14942 3.49281,-4.19147 -0.12091,0.16121 -0.214467,0.29559 -0.227893,0.32246 -0.429906,0.67173 -0.739004,1.07439 -1.07487,1.43712 -0.228385,0.24182 -0.416525,0.38964 -0.537435,0.38964 -0.832943,0 -1.773535,-0.98039 -1.773535,-1.86707 0,-0.76577 1.773579,-3.58741 2.216919,-3.93671 0.06717,-0.0403 0.161238,-0.0672 0.268718,-0.0672 z m -36.285123,0.72554 c -0.752336,0 -2.444812,2.45884 -2.444812,3.27835 0,0.16122 0.09406,0.24185 0.174666,0.24185 0.604556,0 2.431411,-2.60661 2.794145,-3.10369 -0.107477,-0.17465 -0.295612,-0.41651 -0.523999,-0.41651 z m 21.333064,0 c -0.389602,0 -1.786542,1.84085 -2.686658,3.21117 0.241822,0.29556 0.577765,0.57774 0.806153,0.57774 0.846377,0 2.122351,-2.47229 2.122351,-3.42614 0,-0.22839 -0.0672,-0.36277 -0.241846,-0.36277 z m 5.140771,0 c -0.752335,0 -2.444812,2.45884 -2.444812,3.27835 0,0.16122 0.09406,0.24185 0.174667,0.24185 0.604555,0 2.431411,-2.60661 2.794144,-3.10369 -0.107476,-0.17465 -0.295611,-0.41651 -0.523999,-0.41651 z m 6.054411,0 c -0.389603,0 -1.787058,1.84085 -2.687174,3.21117 0.241822,0.29556 0.577764,0.57774 0.806152,0.57774 0.84638,0 2.122868,-2.47229 2.122868,-3.42614 0,-0.22839 -0.0672,-0.36277 -0.241846,-0.36277 z m -32.528246,0.39739 c -0.01644,0 0.009,0.0145 0.02377,0.0238 -0.241051,0.33419 -0.626788,0.88088 -1.114661,1.48363 -0.274515,0.33915 -0.553327,0.65572 -0.789616,0.88625 0.03209,-0.0827 0.02299,-0.10361 0.06821,-0.19534 0.158006,-0.32048 0.383242,-0.68945 0.629936,-1.03146 0.246694,-0.34201 0.51616,-0.65852 0.751375,-0.87488 0.235215,-0.21636 0.459052,-0.29197 0.430982,-0.29197 z m 26.474352,0 c -0.01644,0 0.009,0.0145 0.02377,0.0238 -0.241049,0.33419 -0.627304,0.88088 -1.115177,1.48363 -0.274954,0.3397 -0.553609,0.6572 -0.790133,0.8878 0.03224,-0.0833 0.02209,-0.10438 0.0677,-0.19689 0.158006,-0.32048 0.383242,-0.68945 0.629936,-1.03146 0.246694,-0.34201 0.517194,-0.65852 0.752409,-0.87488 0.235215,-0.21636 0.459569,-0.29197 0.431498,-0.29197 z m 5.772258,0.30954 c -0.08194,0.39679 -0.236655,0.96005 -0.564307,1.52859 -0.200697,0.34824 -0.427082,0.6652 -0.631486,0.87643 -0.196755,0.20333 -0.364072,0.2704 -0.393258,0.27544 -0.01358,-0.009 -0.08812,-0.0332 -0.168982,-0.0941 -0.04062,-0.0306 -0.08359,-0.0836 -0.127124,-0.12403 0.412939,-0.61307 0.886864,-1.28782 1.323434,-1.82779 0.211491,-0.26158 0.396139,-0.46424 0.561723,-0.63459 z m -11.196216,0.002 c -0.08225,0.39701 -0.236012,0.95867 -0.563273,1.52652 -0.200696,0.34825 -0.426567,0.6652 -0.630969,0.87644 -0.19678,0.20335 -0.364562,0.27041 -0.393775,0.27543 -0.01358,-0.009 -0.08812,-0.0332 -0.168982,-0.094 -0.04062,-0.0306 -0.08359,-0.0836 -0.127124,-0.12402 0.412939,-0.61308 0.886862,-1.28783 1.323434,-1.8278 0.210893,-0.26084 0.395384,-0.46232 0.560689,-0.63252 z m 7.483781,0.55191 c -0.181821,0.36011 -0.351299,0.70563 -0.501778,1.03301 -0.0302,0.037 -0.05061,0.0686 -0.08165,0.10542 -0.161814,0.1919 -0.330651,0.35854 -0.490409,0.50229 0.09069,-0.18722 0.194385,-0.38808 0.331762,-0.61391 0.215168,-0.35372 0.483964,-0.68634 0.742075,-1.02681 z m -27.144596,0.9281 c -0.04039,0.13562 -0.04076,0.24291 -0.06976,0.37104 -0.112777,0.12491 -0.224029,0.24251 -0.33228,0.34003 0.09062,-0.18692 0.193672,-0.38705 0.330729,-0.61236 0.02066,-0.034 0.04989,-0.0643 0.07131,-0.0987 z m 31.423404,3.84008 c -0.02496,0.0499 -0.02612,0.11814 -0.04031,0.18035 -1.4e-5,-0.002 -10e-4,-0.001 -10e-4,-0.003 z"
       style="-inkscape-font-specification:'Bhineka Script, Normal';baseline-shift:baseline;display:inline;overflow:visible;vector-effect:none;fill:#4c4f69;stroke-linecap:round;stroke-linejoin:round;paint-order:markers stroke fill;enable-background:accumulate;stop-color:#000000;stop-opacity:1"
       id="path18" /></g></svg>
