<?xml version="1.0" encoding="UTF-8" standalone="no"?>
<!-- Created with Inkscape (http://www.inkscape.org/) -->

<svg
   width="171.26321"
   height="45.400818"
   viewBox="0 0 45.313391 12.0123"
   version="1.1"
   id="svg1"
   inkscape:version="1.4 (e7c3feb100, 2024-10-09)"
   sodipodi:docname="awwbaby.svg"
   xml:space="preserve"
   xmlns:inkscape="http://www.inkscape.org/namespaces/inkscape"
   xmlns:sodipodi="http://sodipodi.sourceforge.net/DTD/sodipodi-0.dtd"
   xmlns="http://www.w3.org/2000/svg"
   xmlns:svg="http://www.w3.org/2000/svg"><sodipodi:namedview
     id="namedview1"
     pagecolor="#ffffff"
     bordercolor="#000000"
     borderopacity="0"
     inkscape:showpageshadow="2"
     inkscape:pageopacity="0.0"
     inkscape:pagecheckerboard="false"
     inkscape:deskcolor="#555555"
     inkscape:document-units="px"
     inkscape:zoom="1.5518659"
     inkscape:cx="301.57245"
     inkscape:cy="536.12881"
     inkscape:window-width="1908"
     inkscape:window-height="994"
     inkscape:window-x="0"
     inkscape:window-y="0"
     inkscape:window-maximized="1"
     inkscape:current-layer="layer1"><inkscape:page
       x="0"
       y="0"
       width="45.313393"
       height="12.0123"
       id="page2"
       margin="0"
       bleed="0" /></sodipodi:namedview><defs
     id="defs1" /><g
     inkscape:label="Layer 1"
     inkscape:groupmode="layer"
     id="layer1"
     transform="translate(-71.201058,-181.96025)"><path
       d="m 96.048131,181.96025 c -0.33881,0 -0.700133,0.0869 -0.935344,0.4005 -8.65e-4,8.5e-4 -0.0017,0.002 -0.0026,0.003 -0.399902,0.54362 -1.101762,1.78615 -1.755449,2.99672 0.03057,-0.16778 0.13901,-0.36245 0.13901,-0.51832 0,-0.32709 -0.137695,-0.6117 -0.334347,-0.84904 -0.196651,-0.23734 -0.473143,-0.44752 -0.841292,-0.44752 -0.138206,0 -0.26578,0.0236 -0.387057,0.0915 -0.121276,0.0679 -0.264583,0.20154 -0.264583,0.42685 0,0.19449 0.09982,0.27861 0.189653,0.34313 -0.02978,0.10145 -0.102328,0.36865 -0.302308,0.75499 -0.233964,0.452 -0.560631,0.99259 -0.905887,1.50637 -0.345257,0.51377 -0.711967,1.00296 -1.02061,1.34979 -0.0204,0.0229 -0.03283,0.03 -0.05271,0.0517 0.07328,-0.29181 0.105733,-0.5188 0.267684,-0.91312 0.2615,-0.6367 0.607547,-1.30928 0.891419,-1.70791 0.06084,-0.0855 0.08537,-0.19156 0.06821,-0.29507 -0.07037,-0.4222 -0.387344,-0.58376 -0.674894,-0.72244 -0.28755,-0.13867 -0.59705,-0.22789 -0.89917,-0.22789 -0.137098,0 -0.332853,2.3e-4 -0.522448,0.17984 -0.159076,0.13654 -0.240198,0.27704 -0.3514,0.47387 -0.116774,0.20669 -0.241465,0.45972 -0.366903,0.74001 -0.238167,0.53217 -0.469885,1.15624 -0.637687,1.71669 -0.220486,0.29688 -0.429126,0.53947 -0.620634,0.7462 0.07362,-0.29099 0.104856,-0.51314 0.2651,-0.9033 0.2615,-0.6367 0.607547,-1.30928 0.891419,-1.70791 0.06102,-0.0854 0.08574,-0.19149 0.06873,-0.29507 -0.07037,-0.4222 -0.386827,-0.58376 -0.674377,-0.72244 -0.28755,-0.13867 -0.597567,-0.22789 -0.899687,-0.22789 -0.13751,0 -0.334381,-10e-4 -0.524516,0.17984 -0.05193,0.0458 -0.07449,0.12178 -0.114721,0.17156 -0.05585,-0.19692 -0.09066,-0.40483 -0.220659,-0.56172 -0.196651,-0.23734 -0.473143,-0.44752 -0.841292,-0.44752 -0.138206,0 -0.26578,0.0236 -0.387056,0.0915 -0.121277,0.0679 -0.265101,0.20102 -0.265101,0.42633 0,0.1945 0.100341,0.27913 0.19017,0.34365 -0.02979,0.10145 -0.102845,0.36865 -0.302824,0.75499 -0.233966,0.452 -0.560114,0.99259 -0.905371,1.50637 -0.345257,0.51377 -0.711967,1.00296 -1.02061,1.34979 -0.0204,0.0229 -0.03283,0.03 -0.05271,0.0517 0.07328,-0.29181 0.105733,-0.5188 0.267684,-0.91312 0.2615,-0.6367 0.60703,-1.30928 0.890902,-1.70791 0.06102,-0.0854 0.08574,-0.19149 0.06873,-0.29507 -0.07037,-0.4222 -0.387345,-0.58376 -0.674895,-0.72244 -0.287549,-0.13867 -0.59705,-0.22789 -0.89917,-0.22789 -0.137097,0 -0.332852,2.3e-4 -0.522448,0.17984 -0.159076,0.13654 -0.240198,0.27704 -0.3514,0.47387 -0.116774,0.20669 -0.241464,0.45972 -0.366903,0.74001 -0.238166,0.53217 -0.469885,1.15624 -0.637687,1.71669 -0.220486,0.29688 -0.429126,0.53947 -0.620634,0.7462 0.07362,-0.29099 0.104856,-0.51314 0.2651,-0.9033 0.2615,-0.6367 0.607547,-1.30928 0.891419,-1.70791 0.06102,-0.0854 0.08574,-0.19149 0.06873,-0.29507 -0.07037,-0.4222 -0.386827,-0.58376 -0.674377,-0.72244 -0.28755,-0.13867 -0.598083,-0.22789 -0.900203,-0.22789 -0.137511,0 -0.334382,-0.001 -0.524516,0.17984 -0.207432,0.18307 -0.303608,0.38752 -0.456303,0.68523 -0.08769,-0.0815 -0.181049,-0.1594 -0.276469,-0.20929 -0.247511,-0.12944 -0.520365,-0.19793 -0.792717,-0.19793 -0.05961,0 -0.124811,0.0482 -0.185001,0.0553 -0.126812,-0.13201 -0.251435,-0.27194 -0.473873,-0.4346 -0.303829,-0.22218 -0.685084,-0.4408 -1.141532,-0.4408 -0.994708,0 -1.852787,0.81493 -2.525428,1.73426 -0.67264,0.91934 -1.163236,1.96478 -1.163236,2.81378 0,0.66472 0.341246,1.223 0.726054,1.61747 0.192404,0.19724 0.398148,0.35598 0.600997,0.47233 0.202848,0.11635 0.391271,0.20154 0.628385,0.20154 0.414869,0 0.674952,-0.25714 0.945679,-0.54467 0.145906,-0.15497 0.29057,-0.37433 0.435632,-0.56844 0.330126,0.57182 0.813955,1.04644 1.507402,1.04644 0.409877,0 0.686245,-0.25042 0.947745,-0.52451 0.10132,-0.1062 0.186075,-0.25014 0.281637,-0.37311 0.09219,0.1046 0.167779,0.22208 0.271818,0.31471 0.434865,0.38719 0.959326,0.67593 1.516703,0.67593 0.197162,0 0.35717,-0.0879 0.478007,-0.18655 0.120837,-0.0986 0.21738,-0.21592 0.312126,-0.34933 0.0953,-0.13421 0.187951,-0.32957 0.280603,-0.4961 0.166158,0.1922 0.295416,0.41536 0.500228,0.56328 0.380126,0.27453 0.810149,0.4687 1.263488,0.4687 0.256147,0 0.433006,-0.10913 0.619084,-0.23926 0.186078,-0.13013 0.376039,-0.30055 0.574125,-0.50488 0.388378,-0.40062 0.807987,-0.93532 1.204578,-1.51825 0.004,0.0437 0.0088,0.11079 0.0088,0.0796 -2.18e-4,0.0206 0.0012,0.0411 0.0041,0.0615 0.08897,0.56053 0.442601,1.05821 0.877466,1.44539 0.434865,0.38719 0.959326,0.67593 1.516703,0.67593 0.197162,0 0.35717,-0.0879 0.478007,-0.18655 0.120837,-0.0986 0.217896,-0.21592 0.312643,-0.34933 0.0953,-0.13421 0.187951,-0.32957 0.280603,-0.4961 0.166158,0.1922 0.294899,0.41536 0.499711,0.56328 0.380126,0.27453 0.810149,0.4687 1.263488,0.4687 0.256147,0 0.433523,-0.10913 0.619601,-0.23926 0.186078,-0.13013 0.375522,-0.30055 0.573608,-0.50488 0.372817,-0.38457 0.773605,-0.90184 1.156002,-1.45728 -0.09876,0.26991 -0.251664,0.57725 -0.251664,0.81132 0,0.46113 0.284232,0.7994 0.559655,1.01338 0.137712,0.10699 0.279944,0.18847 0.415479,0.24753 0.135536,0.0591 0.248455,0.10284 0.415479,0.10284 0.223923,0 0.405176,-0.12228 0.51263,-0.25839 0.107453,-0.1361 0.166398,-0.29456 0.166398,-0.47439 0,-0.0112 0.0086,-0.0618 0.01757,-0.11782 0.0015,-0.004 0.08552,-0.15547 0.10852,-0.20257 0.110499,0.16345 0.173734,0.34452 0.319361,0.48576 0.330563,0.3206 0.774852,0.56741 1.294494,0.56741 0.486015,0 0.913309,-0.25563 1.293978,-0.59893 0.380669,-0.34331 0.725146,-0.79346 1.025266,-1.28158 0.003,-0.005 0.004,-0.009 0.007,-0.0139 0.10522,0.48127 0.32955,0.91214 0.63045,1.22059 0.1924,0.19724 0.39815,0.35598 0.601,0.47233 0.20284,0.11635 0.39127,0.20154 0.62838,0.20154 0.414869,0 0.674439,-0.25714 0.945159,-0.54467 0.14585,-0.1549 0.29063,-0.37442 0.43563,-0.56844 0.3301,0.57201 0.81381,1.04644 1.50741,1.04644 0.32836,0 0.56376,-0.17462 0.78186,-0.3793 0.0316,0.028 0.0566,0.0709 0.0884,0.0956 0.13771,0.10699 0.27943,0.18847 0.41496,0.24753 0.13554,0.0591 0.24949,0.10284 0.41651,0.10284 0.22393,0 0.40518,-0.12228 0.51263,-0.25839 0.10746,-0.1361 0.1664,-0.29456 0.1664,-0.47439 0,-0.0112 0.008,-0.0618 0.017,-0.11782 0.002,-0.004 0.085,-0.15547 0.10801,-0.20257 0.11053,0.16354 0.1747,0.34445 0.32039,0.48576 0.33056,0.3206 0.77382,0.56741 1.29346,0.56741 0.48602,0 0.91383,-0.25563 1.2945,-0.59893 0.37601,-0.33912 0.71586,-0.78435 1.01337,-1.26556 0.0952,0.42979 0.28988,0.83449 0.59376,1.15342 0.39558,0.41516 0.91502,0.7245 1.48726,0.7245 0.0345,0 0.0424,-0.0243 0.0724,-0.0284 -0.0214,0.0308 -0.0374,0.0817 -0.0589,0.11162 -0.537,0.74548 -1.08596,1.1653 -1.66606,1.1653 -0.16873,0 -0.23462,-0.0529 -0.29817,-0.13229 -0.0635,-0.0794 -0.0977,-0.20683 -0.0977,-0.26355 0,-0.0365 -0.005,-0.005 -0.002,-0.0109 0.0276,-0.0552 0.0419,-0.11606 0.0419,-0.17777 0,-0.20188 -0.11828,-0.29312 -0.17312,-0.33228 -0.0548,-0.0391 -0.0909,-0.0516 -0.1235,-0.0625 -0.0653,-0.0218 -0.11661,-0.0284 -0.18087,-0.0284 -0.44785,0 -0.894,0.42127 -0.894,1.16272 0,0.95166 0.87383,1.87482 2.25051,1.87482 1.0158,0 1.85962,-0.53314 2.5306,-1.28002 0.67098,-0.74688 1.203,-1.71736 1.66967,-2.71043 0.46667,-0.99307 0.86593,-2.01063 1.24127,-2.84014 0.37534,-0.8295 0.76105,-1.46734 1.01699,-1.65984 0.0997,-0.0748 0.15844,-0.19213 0.15865,-0.31678 0,-0.38489 -0.24789,-0.6346 -0.51677,-0.81752 -0.26888,-0.18293 -0.60381,-0.30489 -0.96841,-0.30489 -0.31418,0 -0.66978,0.1377 -0.87127,0.45113 0,3.5e-4 0,6.9e-4 0,0.001 0,0 -0.3062,0.48436 -0.6351,1.07177 -0.50346,0.62866 -1.12329,1.36637 -1.6676,1.93993 -0.15611,0.16449 -0.27853,0.26906 -0.416,0.39894 0.11231,-0.21703 0.22532,-0.43654 0.37879,-0.6873 0.41583,-0.67941 0.9422,-1.41821 1.33584,-1.87533 0.0619,-0.0719 0.096,-0.16354 0.0961,-0.25839 0,-0.2189 -0.10533,-0.38901 -0.21808,-0.51211 -0.11275,-0.12309 -0.24462,-0.2147 -0.3855,-0.29145 -0.28178,-0.1535 -0.59431,-0.25167 -0.90848,-0.25167 -0.17362,0 -0.33278,0.0397 -0.47336,0.12403 -0.0144,0.009 -0.0282,0.0181 -0.0413,0.0284 -0.2138,0.16845 -0.37621,0.40159 -0.61237,0.73794 -0.19421,0.2766 -0.41181,0.62517 -0.62374,0.97358 -0.004,-0.51214 -0.27741,-0.95072 -0.61701,-1.27434 -0.34213,-0.32603 -0.75596,-0.56224 -1.21388,-0.56224 -0.12855,0 -0.23187,0.0717 -0.34675,0.10904 0.19988,-0.30415 0.47216,-0.82044 0.62218,-1.01803 0.0522,-0.0688 0.0805,-0.15286 0.0806,-0.23926 0,-0.34765 -0.23916,-0.61497 -0.48214,-0.75241 -0.24297,-0.13744 -0.51633,-0.19534 -0.78858,-0.19534 -0.33881,0 -0.70013,0.0869 -0.93534,0.4005 -5.2e-4,8.6e-4 -0.001,0.002 -0.002,0.003 -0.4207,0.57189 -1.16186,1.87193 -1.84692,3.15278 -0.0416,-0.32747 -0.27516,-0.53882 -0.50178,-0.65732 -0.24751,-0.12944 -0.52088,-0.19793 -0.79323,-0.19793 -0.0596,0 -0.12481,0.0482 -0.185,0.0553 -0.12681,-0.13201 -0.25195,-0.27194 -0.47439,-0.4346 -0.30383,-0.22218 -0.68457,-0.4408 -1.14102,-0.4408 -0.9947,0 -1.851749,0.81493 -2.524389,1.73426 -0.0353,0.0483 -0.0541,0.10142 -0.0884,0.15038 -0.0577,-0.43566 -0.27514,-0.8215 -0.57464,-1.10691 -0.34213,-0.32603 -0.75596,-0.56224 -1.213882,-0.56224 -0.128549,0 -0.231869,0.0717 -0.346749,0.10904 0.199878,-0.30415 0.472163,-0.82044 0.622184,-1.01803 0.0522,-0.0688 0.0805,-0.15286 0.08062,-0.23926 0,-0.34765 -0.23813,-0.61497 -0.481105,-0.75241 -0.242975,-0.13744 -0.516335,-0.19534 -0.788582,-0.19534 z m 0,0.39636 c 0.416471,0 0.873331,0.20157 0.873331,0.55087 -0.550817,0.72547 -1.451147,2.17675 -2.203483,3.60082 0.752336,-1.03446 1.666105,-2.05569 2.243791,-2.05569 0.591121,0 1.437121,0.72561 1.437121,1.45107 0,1.33002 -1.611918,4.37958 -2.955374,4.37958 -0.79264,0 -1.370487,-0.73904 -1.652613,-1.4242 -0.241822,0.40304 -0.416516,0.72555 -0.456819,0.87333 -0.01344,0.0806 -0.02687,0.1478 -0.02687,0.21497 0,0.16122 -0.120939,0.3359 -0.282153,0.3359 -0.241823,0 -0.993738,-0.3897 -0.993738,-0.96738 0,-0.91355 2.538946,-5.54861 3.398759,-6.71742 0.120911,-0.16122 0.362793,-0.24185 0.61805,-0.24185 z m 11.194669,0 c 0.41647,0 0.87333,0.20157 0.87333,0.55087 -0.55082,0.72547 -1.45115,2.17675 -2.20349,3.60082 0.75234,-1.03446 1.66611,-2.05569 2.24379,-2.05569 0.59113,0 1.43764,0.72561 1.43764,1.45107 0,1.33002 -1.61243,4.37958 -2.95589,4.37958 -0.79264,0 -1.36997,-0.73904 -1.65209,-1.4242 -0.24183,0.40304 -0.41652,0.72555 -0.45682,0.87333 -0.0134,0.0806 -0.0269,0.1478 -0.0269,0.21497 0,0.16122 -0.12094,0.3359 -0.28216,0.3359 -0.19138,0 -0.69737,-0.24642 -0.90227,-0.63459 -0.27741,0.32705 -0.55768,0.56741 -0.79943,0.56741 -0.71203,0 -1.30278,-0.63156 -1.464,-1.35702 -0.52394,0.7792 -1.04803,1.4242 -1.424199,1.4242 -0.44334,0 -1.55856,-0.84656 -1.55856,-1.89446 0,-1.34345 1.80055,-4.15117 3.291789,-4.15117 0.63142,0 1.28935,0.67182 1.49087,0.90021 0.0672,-0.0537 0.18811,-0.0806 0.30902,-0.0806 0.3896,0 0.92708,0.22844 0.92708,0.53744 -0.79264,0.91355 -1.77354,2.4583 -1.77354,2.98224 0,0.10748 0.0403,0.17467 0.14779,0.17467 0.38846,0 0.91252,-0.54366 1.33946,-1.06918 0.79928,-1.75028 2.21679,-4.26326 2.8205,-5.08393 0.12091,-0.16122 0.36279,-0.24185 0.61805,-0.24185 z m -22.69836,1.37666 c 0.02584,0 0.07314,0.006 0.129191,0.0429 0.0045,0.003 0.0065,0.0199 0.01137,0.0233 -0.05117,-0.0158 -0.09536,-0.0661 -0.14056,-0.0661 z m 7.639327,0 c 0.02584,0 0.07314,0.006 0.129191,0.0429 0.0045,0.003 0.0065,0.0199 0.01137,0.0233 -0.05117,-0.0158 -0.09536,-0.0661 -0.14056,-0.0661 z m -7.504968,0.20878 c 0.389602,0 0.778764,0.5106 0.778764,0.9002 0,1.63902 -2.727047,5.46788 -3.55999,5.46788 -0.658293,0 -1.477981,-0.61811 -1.840714,-1.30328 -0.376168,0.75234 -0.698178,1.30328 -0.993738,1.30328 -0.631686,0 -1.413834,-0.57837 -1.790071,-1.23558 -0.401363,0.60383 -0.858841,1.14153 -1.228349,1.14153 -0.712032,0 -1.302778,-0.63156 -1.463993,-1.35702 -0.523948,0.7792 -1.048035,1.4242 -1.424203,1.4242 -0.443341,0 -1.558561,-0.84656 -1.558561,-1.89446 0,-1.34345 1.800552,-4.15117 3.291789,-4.15117 0.631424,0 1.289346,0.67182 1.490865,0.90021 0.06717,-0.0537 0.188114,-0.0806 0.309025,-0.0806 0.389602,0 0.927075,0.22844 0.927075,0.53744 -0.79264,0.91355 -1.773535,2.4583 -1.773535,2.98224 0,0.10748 0.04032,0.17467 0.147794,0.17467 0.320523,0 0.739874,-0.3785 1.117245,-0.80512 0.226515,-1.0938 1.064547,-3.01255 1.377177,-3.27887 0.05374,-0.0537 0.147805,-0.0672 0.255281,-0.0672 0.416472,0 1.128102,0.29562 1.18184,0.61805 -0.631424,0.88668 -1.396814,2.74047 -1.396814,3.4122 0,0.16121 0.04032,0.25528 0.134359,0.25528 0.268691,0 0.832562,-0.60469 1.396814,-1.37046 0.32243,-1.11507 0.994282,-2.6195 1.276408,-2.84789 0.05374,-0.0537 0.147805,-0.0672 0.255281,-0.0672 0.416472,0 1.128619,0.29562 1.182357,0.61805 -0.631424,0.88668 -1.397331,2.74047 -1.397331,3.4122 0,0.16121 0.04032,0.25528 0.134359,0.25528 0.671729,0 3.15743,-3.78848 3.15743,-4.60799 0,-0.094 -0.04032,-0.14779 -0.120923,-0.14779 -0.08061,0 -0.120923,-0.0403 -0.120923,-0.0672 0,-0.0537 0.08063,-0.12092 0.255282,-0.12092 z m 7.639327,0 c 0.389602,0 0.779281,0.5106 0.779281,0.9002 0,1.63902 -2.727564,5.46788 -3.560507,5.46788 -0.658294,0 -1.477464,-0.61811 -1.840197,-1.30328 -0.376168,0.75234 -0.698694,1.30328 -0.994255,1.30328 -0.806074,0 -1.867599,-0.94059 -2.001945,-1.78697 0,-0.0403 -0.01344,-0.0806 -0.01344,-0.12092 0,-0.88668 1.074905,-3.42566 1.437639,-3.73466 0.05374,-0.0537 0.147805,-0.0672 0.255281,-0.0672 0.416472,0 1.128618,0.29562 1.182357,0.61805 -0.631425,0.88668 -1.397331,2.74047 -1.397331,3.4122 0,0.16121 0.04032,0.25528 0.134359,0.25528 0.268691,0 0.833079,-0.60469 1.397331,-1.37046 0.322429,-1.11507 0.993765,-2.6195 1.275891,-2.84789 0.05374,-0.0537 0.147805,-0.0672 0.255281,-0.0672 0.416472,0 1.128619,0.29562 1.182357,0.61805 -0.631425,0.88668 -1.397331,2.74047 -1.397331,3.4122 0,0.16121 0.04032,0.25528 0.134359,0.25528 0.671728,0 3.15743,-3.78848 3.15743,-4.60799 0,-0.094 -0.04032,-0.14779 -0.120923,-0.14779 -0.08061,0 -0.120923,-0.0403 -0.120923,-0.0672 0,-0.0537 0.08063,-0.12092 0.255282,-0.12092 z m 19.420534,0.48369 c 0.4299,0 1.11517,0.32249 1.11517,0.65835 -0.83294,0.96729 -2.12288,2.98231 -2.12288,3.55999 0,0.10748 0.0269,0.16123 0.12093,0.16123 0.47022,0 1.97518,-1.73283 2.99621,-3.00911 0.33586,-0.60456 0.64492,-1.08831 0.64492,-1.08831 0.12091,-0.18808 0.32196,-0.26872 0.53692,-0.26872 h 5.1e-4 c 0.53738,0 1.08779,0.38968 1.08779,0.72554 -1.57184,1.18224 -2.70044,8.40982 -6.2203,8.40982 -1.20911,0 -1.85363,-0.76539 -1.85363,-1.47743 0,-0.59112 0.33591,-0.76584 0.49712,-0.76584 0.0403,0 0.0806,0.0134 0.0806,0.0269 -0.0269,0.0537 -0.0403,0.1075 -0.0403,0.1881 0,0.309 0.22847,0.79272 0.79272,0.79272 1.53154,0 2.60614,-2.14994 3.49282,-4.19199 -0.12091,0.16121 -0.21499,0.29559 -0.22841,0.32246 -0.4299,0.67173 -0.739,1.0749 -1.07487,1.43764 -0.22838,0.24182 -0.41652,0.38964 -0.53743,0.38964 -0.83296,0 -1.77303,-0.98091 -1.77303,-1.86759 0,-0.76577 1.77307,-3.58689 2.21641,-3.93619 0.0672,-0.0403 0.16124,-0.0672 0.26872,-0.0672 z m -36.284621,0.72553 c -0.752336,0 -2.445328,2.45833 -2.445328,3.27784 0,0.16122 0.09406,0.24185 0.174666,0.24185 0.604556,0 2.431411,-2.60609 2.794144,-3.10317 -0.107476,-0.17465 -0.295094,-0.41652 -0.523482,-0.41652 z m 21.333065,0 c -0.389602,0 -1.787059,1.84033 -2.687175,3.21066 0.241822,0.29556 0.577765,0.57774 0.806153,0.57774 0.846377,0 2.122867,-2.47177 2.122867,-3.42563 0,-0.22838 -0.0672,-0.36277 -0.241845,-0.36277 z m 5.140256,0 c -0.75234,0 -2.444809,2.45833 -2.444809,3.27784 0,0.16122 0.0941,0.24185 0.17466,0.24185 0.604559,0 2.431409,-2.60609 2.794149,-3.10317 -0.10748,-0.17465 -0.29561,-0.41652 -0.524,-0.41652 z m 6.05441,0 c -0.3896,0 -1.78654,1.84033 -2.68666,3.21066 0.24182,0.29556 0.57725,0.57774 0.80564,0.57774 0.84638,0 2.12286,-2.47177 2.12286,-3.42563 0,-0.22838 -0.0672,-0.36277 -0.24184,-0.36277 z m -32.527731,0.3974 c -0.01644,0 0.009,0.0144 0.02377,0.0238 -0.24105,0.33419 -0.627304,0.88088 -1.115177,1.48363 -0.274515,0.33915 -0.55281,0.6552 -0.789099,0.88573 0.03209,-0.0827 0.02247,-0.10361 0.0677,-0.19534 0.158006,-0.32048 0.383242,-0.68893 0.629936,-1.03094 0.246694,-0.34201 0.51616,-0.65852 0.751375,-0.87488 0.235215,-0.21636 0.459569,-0.29197 0.431498,-0.29197 z m 26.473831,0 c -0.0164,0 0.009,0.0144 0.0238,0.0238 -0.24105,0.33419 -0.62678,0.88088 -1.11466,1.48363 -0.27495,0.33969 -0.5536,0.6572 -0.79013,0.8878 0.0322,-0.0833 0.0221,-0.1049 0.0677,-0.19741 0.15801,-0.32048 0.38324,-0.68893 0.62994,-1.03094 0.24669,-0.34201 0.51719,-0.65852 0.75241,-0.87488 0.23521,-0.21636 0.45905,-0.29197 0.43098,-0.29197 z m 5.77226,0.30954 c -0.0819,0.39679 -0.23614,0.96005 -0.56379,1.52859 -0.20069,0.34824 -0.4276,0.6652 -0.632,0.87643 -0.19674,0.20332 -0.36406,0.26987 -0.39326,0.27492 -0.0143,-0.009 -0.0887,-0.0336 -0.16898,-0.094 -0.0406,-0.0306 -0.0831,-0.0836 -0.12661,-0.12403 0.41294,-0.61308 0.88687,-1.28731 1.32344,-1.82728 0.21149,-0.26158 0.39562,-0.46424 0.5612,-0.63458 z m -11.196213,0.002 c -0.08225,0.39701 -0.235495,0.95918 -0.562756,1.52704 -0.200697,0.34824 -0.426568,0.6652 -0.63097,0.87643 -0.196769,0.20334 -0.365064,0.26989 -0.394291,0.27492 -0.0143,-0.009 -0.08865,-0.0336 -0.168982,-0.094 -0.04062,-0.0306 -0.08307,-0.0836 -0.126607,-0.12403 0.412938,-0.61308 0.886862,-1.28731 1.323433,-1.82728 0.210893,-0.26084 0.394868,-0.46283 0.560173,-0.63303 z m 7.483783,0.5519 c -0.18182,0.36012 -0.35079,0.70564 -0.50126,1.03301 -0.0302,0.037 -0.0511,0.0686 -0.0822,0.10542 -0.16182,0.19191 -0.33014,0.35906 -0.4899,0.50282 0.0907,-0.18723 0.19439,-0.3886 0.33177,-0.61444 0.21516,-0.35371 0.48344,-0.68633 0.74155,-1.02681 z m -27.144598,0.92863 c -0.04039,0.13562 -0.04024,0.2429 -0.06925,0.37103 -0.112776,0.12492 -0.224545,0.242 -0.332796,0.33952 0.09062,-0.18692 0.193671,-0.38706 0.330729,-0.61237 0.02066,-0.034 0.04989,-0.0638 0.07131,-0.0982 z m 31.423918,3.83956 c -0.025,0.0499 -0.0266,0.11813 -0.0408,0.18035 -1e-5,-0.002 -5.1e-4,-0.001 -5.1e-4,-0.003 z"
       style="-inkscape-font-specification:'Bhineka Script, Normal';baseline-shift:baseline;display:inline;overflow:visible;vector-effect:none;stroke-linecap:round;stroke-linejoin:round;paint-order:markers stroke fill;enable-background:accumulate;stop-color:#000000;stop-opacity:1"
       id="path8" /></g></svg>
