<?xml version="1.0" encoding="UTF-8" standalone="no"?>
<!-- Created with Inkscape (http://www.inkscape.org/) -->

<svg
   width="171.26364"
   height="45.400757"
   viewBox="0 0 45.313504 12.012284"
   version="1.1"
   id="svg1"
   inkscape:version="1.4 (e7c3feb100, 2024-10-09)"
   sodipodi:docname="awwbaby.svg"
   xml:space="preserve"
   xmlns:inkscape="http://www.inkscape.org/namespaces/inkscape"
   xmlns:sodipodi="http://sodipodi.sourceforge.net/DTD/sodipodi-0.dtd"
   xmlns="http://www.w3.org/2000/svg"
   xmlns:svg="http://www.w3.org/2000/svg"><sodipodi:namedview
     id="namedview1"
     pagecolor="#ffffff"
     bordercolor="#000000"
     borderopacity="0"
     inkscape:showpageshadow="2"
     inkscape:pageopacity="0.0"
     inkscape:pagecheckerboard="false"
     inkscape:deskcolor="#555555"
     inkscape:document-units="px"
     inkscape:zoom="1.5518659"
     inkscape:cx="301.57245"
     inkscape:cy="536.12881"
     inkscape:window-width="1908"
     inkscape:window-height="994"
     inkscape:window-x="0"
     inkscape:window-y="0"
     inkscape:window-maximized="1"
     inkscape:current-layer="layer1"><inkscape:page
       x="0"
       y="5.9806794e-15"
       width="45.313503"
       height="12.012284"
       id="page2"
       margin="0"
       bleed="0" /></sodipodi:namedview><defs
     id="defs1" /><g
     inkscape:label="Layer 1"
     inkscape:groupmode="layer"
     id="layer1"
     transform="translate(-90.46637,-194.74727)"><path
       d="m 115.31389,194.74728 c -0.33881,0 -0.70013,0.0869 -0.93534,0.4005 -8.7e-4,8.5e-4 -0.002,0.002 -0.003,0.003 -0.3999,0.54362 -1.10176,1.78615 -1.75545,2.99672 0.0306,-0.16779 0.13901,-0.36245 0.13901,-0.51832 0,-0.32709 -0.13769,-0.61171 -0.33434,-0.84904 -0.19665,-0.23734 -0.47315,-0.44752 -0.84129,-0.44752 -0.13821,0 -0.26579,0.0236 -0.38706,0.0915 -0.12128,0.0679 -0.26458,0.20154 -0.26458,0.42684 0,0.1945 0.0998,0.27862 0.18965,0.34314 -0.0298,0.10145 -0.10233,0.36865 -0.30231,0.75499 -0.23396,0.452 -0.56011,0.99259 -0.90537,1.50637 -0.34526,0.51377 -0.71248,1.00296 -1.02113,1.34978 -0.0204,0.0229 -0.0328,0.03 -0.0527,0.0517 0.0733,-0.29181 0.10574,-0.51881 0.26769,-0.91312 0.2615,-0.6367 0.60754,-1.30928 0.89142,-1.70791 0.061,-0.0854 0.0857,-0.19149 0.0687,-0.29507 -0.0704,-0.4222 -0.38735,-0.58376 -0.6749,-0.72244 -0.28755,-0.13867 -0.59757,-0.22789 -0.89969,-0.22789 -0.13709,0 -0.33285,2.2e-4 -0.52244,0.17983 -0.15908,0.13655 -0.2402,0.27705 -0.3514,0.47388 -0.11678,0.20668 -0.24147,0.45971 -0.36691,0.74 -0.23816,0.53218 -0.46988,1.15625 -0.63768,1.71669 -0.22049,0.29689 -0.42861,0.53948 -0.62012,0.74621 0.0736,-0.29099 0.10434,-0.51314 0.26458,-0.9033 0.2615,-0.6367 0.60755,-1.30928 0.89142,-1.70791 0.061,-0.0854 0.0857,-0.19149 0.0687,-0.29507 -0.0704,-0.4222 -0.38683,-0.58376 -0.67438,-0.72244 -0.28755,-0.13867 -0.59756,-0.22789 -0.89968,-0.22789 -0.13751,0 -0.33438,-0.001 -0.52452,0.17983 -0.0519,0.0458 -0.0745,0.12179 -0.11472,0.17157 -0.0559,-0.19692 -0.0907,-0.40483 -0.22066,-0.56172 -0.19665,-0.23734 -0.47314,-0.44752 -0.84129,-0.44752 -0.13821,0 -0.26578,0.0236 -0.38706,0.0915 -0.12127,0.0679 -0.2651,0.20102 -0.2651,0.42633 0,0.1945 0.10034,0.27913 0.19017,0.34365 -0.0298,0.10145 -0.10284,0.36865 -0.30282,0.75499 -0.23397,0.452 -0.56012,0.99259 -0.90537,1.50637 -0.34526,0.51377 -0.71197,1.00296 -1.02061,1.34978 -0.0204,0.0229 -0.0328,0.03 -0.0527,0.0517 0.0733,-0.29181 0.10573,-0.51881 0.26768,-0.91312 0.2615,-0.6367 0.60755,-1.30928 0.89142,-1.70791 0.0608,-0.0855 0.0854,-0.19156 0.0682,-0.29507 -0.0704,-0.4222 -0.38734,-0.58376 -0.67489,-0.72244 -0.28755,-0.13867 -0.59705,-0.22789 -0.89917,-0.22789 -0.1371,0 -0.33285,2.2e-4 -0.52245,0.17983 -0.15908,0.13655 -0.2402,0.27705 -0.351401,0.47388 -0.116773,0.20668 -0.241464,0.45971 -0.366902,0.74 -0.238167,0.53218 -0.469886,1.15625 -0.637688,1.71669 -0.220486,0.29689 -0.429126,0.53948 -0.620634,0.74621 0.07362,-0.29099 0.104856,-0.51314 0.265101,-0.9033 0.2615,-0.6367 0.607546,-1.30928 0.891418,-1.70791 0.06102,-0.0854 0.08574,-0.19149 0.06873,-0.29507 -0.07037,-0.4222 -0.386828,-0.58376 -0.674378,-0.72244 -0.28755,-0.13867 -0.598083,-0.22789 -0.900203,-0.22789 -0.137511,0 -0.333865,-10e-4 -0.523999,0.17983 -0.207432,0.18308 -0.304125,0.38753 -0.45682,0.68523 -0.08769,-0.0815 -0.181049,-0.15939 -0.276469,-0.20929 -0.247511,-0.12943 -0.520365,-0.19792 -0.792716,-0.19792 -0.05962,0 -0.124812,0.0482 -0.185002,0.0553 -0.126812,-0.13201 -0.251435,-0.27194 -0.473873,-0.4346 -0.303829,-0.22218 -0.685084,-0.4408 -1.141532,-0.4408 -0.994708,0 -1.852786,0.81492 -2.525427,1.73426 -0.672641,0.91933 -1.163237,1.96478 -1.163237,2.81378 0,0.66472 0.341246,1.223 0.726054,1.61747 0.192404,0.19724 0.398149,0.35598 0.600997,0.47233 0.202848,0.11635 0.391272,0.20153 0.628385,0.20153 0.41487,0 0.674952,-0.25713 0.945679,-0.54467 0.145906,-0.15496 0.29057,-0.37432 0.435632,-0.56844 0.330126,0.57183 0.813955,1.04645 1.507402,1.04645 0.409877,0 0.686245,-0.25043 0.947746,-0.52451 0.101319,-0.1062 0.186074,-0.25014 0.281636,-0.37311 0.09219,0.1046 0.167779,0.22208 0.271818,0.31471 0.434865,0.38718 0.959326,0.67593 1.516703,0.67593 0.197162,0 0.357171,-0.0879 0.478007,-0.18655 0.120837,-0.0986 0.21738,-0.21592 0.312126,-0.34934 0.0953,-0.1342 0.187951,-0.32956 0.280603,-0.49609 0.166159,0.1922 0.295416,0.41535 0.500228,0.56327 0.380126,0.27454 0.810146,0.46871 1.263486,0.46871 0.25615,0 0.43352,-0.10913 0.6196,-0.23926 0.18608,-0.13013 0.37552,-0.30055 0.57361,-0.50488 0.38838,-0.40063 0.80799,-0.93532 1.20458,-1.51825 0.004,0.0437 0.009,0.11079 0.009,0.0796 -2.1e-4,0.0206 0.001,0.0411 0.004,0.0615 0.089,0.56053 0.4426,1.05821 0.87746,1.44539 0.43487,0.38718 0.95985,0.67593 1.51722,0.67593 0.19717,0 0.35666,-0.0879 0.47749,-0.18655 0.12084,-0.0986 0.2179,-0.21592 0.31265,-0.34934 0.0953,-0.1342 0.18795,-0.32956 0.2806,-0.49609 0.16616,0.1922 0.2949,0.41535 0.49971,0.56327 0.38013,0.27454 0.81015,0.46871 1.26349,0.46871 0.25615,0 0.43352,-0.10913 0.6196,-0.23926 0.18608,-0.13013 0.37552,-0.30055 0.57361,-0.50488 0.37282,-0.38457 0.7736,-0.90184 1.156,-1.45728 -0.0988,0.26991 -0.25166,0.57725 -0.25166,0.81132 0,0.46113 0.28423,0.79939 0.55965,1.01338 0.13771,0.10699 0.27994,0.18847 0.41548,0.24753 0.13554,0.0591 0.24846,0.10283 0.41548,0.10283 0.22392,0 0.40518,-0.12227 0.51263,-0.25838 0.10745,-0.13611 0.1664,-0.29456 0.1664,-0.47439 0,-0.0112 0.009,-0.0618 0.0176,-0.11782 0.002,-0.004 0.0855,-0.15547 0.10852,-0.20257 0.1105,0.16345 0.17373,0.34452 0.31936,0.48576 0.33056,0.3206 0.77485,0.5674 1.29449,0.5674 0.48602,0 0.91331,-0.25562 1.29398,-0.59893 0.38067,-0.3433 0.72515,-0.79345 1.02526,-1.28157 0.003,-0.005 0.004,-0.009 0.007,-0.0139 0.10522,0.48126 0.32955,0.91214 0.63045,1.22059 0.1924,0.19724 0.39815,0.35598 0.60099,0.47233 0.20285,0.11635 0.39128,0.20153 0.62839,0.20153 0.41487,0 0.67443,-0.25713 0.94516,-0.54467 0.14585,-0.1549 0.29063,-0.37441 0.43563,-0.56844 0.3301,0.57202 0.81381,1.04645 1.50741,1.04645 0.32836,0 0.56376,-0.17462 0.78186,-0.3793 0.0316,0.028 0.0566,0.0709 0.0884,0.0956 0.13771,0.10699 0.27942,0.18847 0.41496,0.24753 0.13553,0.0591 0.24949,0.10283 0.41651,0.10283 0.22392,0 0.40518,-0.12227 0.51263,-0.25838 0.10745,-0.13611 0.1664,-0.29456 0.1664,-0.47439 0,-0.0112 0.008,-0.0618 0.017,-0.11782 0.002,-0.004 0.085,-0.15547 0.10801,-0.20257 0.11053,0.16354 0.1747,0.34445 0.32039,0.48576 0.33056,0.3206 0.77382,0.5674 1.29346,0.5674 0.48601,0 0.91383,-0.25562 1.2945,-0.59893 0.37601,-0.33911 0.71586,-0.78435 1.01337,-1.26555 0.0952,0.42979 0.29039,0.83448 0.59428,1.15342 0.39558,0.41516 0.9145,0.7245 1.48673,0.7245 0.0345,0 0.0424,-0.0243 0.0724,-0.0284 -0.0214,0.0308 -0.0374,0.0817 -0.0589,0.11162 -0.537,0.74548 -1.08596,1.1653 -1.66605,1.1653 -0.16874,0 -0.23462,-0.0528 -0.29817,-0.13229 -0.0636,-0.0794 -0.0977,-0.20683 -0.0977,-0.26355 0,-0.0365 -0.005,-0.005 -0.002,-0.0109 0.0276,-0.0552 0.0419,-0.11606 0.0419,-0.17777 0,-0.20188 -0.11828,-0.29312 -0.17311,-0.33228 -0.0548,-0.0392 -0.0903,-0.0516 -0.12299,-0.0625 -0.0653,-0.0218 -0.11713,-0.0284 -0.18139,-0.0284 -0.44784,0 -0.894,0.42127 -0.894,1.16272 0,0.95166 0.87383,1.87482 2.25051,1.87482 1.01579,0 1.85962,-0.53314 2.5306,-1.28002 0.67097,-0.74688 1.20299,-1.71737 1.66966,-2.71043 0.46667,-0.99307 0.86593,-2.01063 1.24127,-2.84014 0.37534,-0.8295 0.76156,-1.46734 1.01751,-1.65984 0.0995,-0.0749 0.15804,-0.19223 0.15813,-0.31678 0,-0.38489 -0.24737,-0.6346 -0.51625,-0.81752 -0.26888,-0.18293 -0.60433,-0.30489 -0.96893,-0.30489 -0.31418,0 -0.66978,0.1377 -0.87127,0.45113 0,3.5e-4 0,6.9e-4 0,0.001 0,0 -0.3062,0.48436 -0.6351,1.07176 -0.50346,0.62867 -1.12329,1.36638 -1.6676,1.93994 -0.1561,0.16449 -0.27853,0.26906 -0.41599,0.39894 0.11231,-0.21703 0.22531,-0.43654 0.37878,-0.6873 0.41584,-0.67941 0.9422,-1.41821 1.33584,-1.87533 0.0619,-0.0719 0.096,-0.16354 0.0961,-0.25839 0,-0.2189 -0.10533,-0.38901 -0.21808,-0.51211 -0.11275,-0.1231 -0.24462,-0.21471 -0.3855,-0.29146 -0.28177,-0.15349 -0.59379,-0.25166 -0.90796,-0.25166 -0.17362,0 -0.3333,0.0397 -0.47387,0.12402 -0.0144,0.009 -0.0282,0.0181 -0.0413,0.0284 -0.21381,0.16845 -0.37621,0.40159 -0.61237,0.73794 -0.19421,0.27659 -0.4118,0.62517 -0.62373,0.97358 -0.004,-0.51214 -0.27742,-0.95072 -0.61702,-1.27434 -0.34213,-0.32603 -0.75596,-0.56224 -1.21388,-0.56224 -0.12855,0 -0.23187,0.0717 -0.34675,0.10904 0.19988,-0.30415 0.47216,-0.82044 0.62219,-1.01803 0.0522,-0.0688 0.0805,-0.15286 0.0806,-0.23926 0,-0.34765 -0.23916,-0.61497 -0.48214,-0.75241 -0.24297,-0.13744 -0.51582,-0.19534 -0.78806,-0.19534 -0.33881,0 -0.70014,0.0869 -0.93535,0.4005 -6.9e-4,8.5e-4 -10e-4,0.002 -0.002,0.003 -0.4207,0.57189 -1.16185,1.87193 -1.84691,3.15278 -0.0416,-0.32747 -0.27516,-0.53882 -0.50178,-0.65733 -0.24751,-0.12943 -0.52088,-0.19792 -0.79323,-0.19792 -0.0596,0 -0.12481,0.0482 -0.185,0.0553 -0.12682,-0.13201 -0.25196,-0.27194 -0.47439,-0.4346 -0.30383,-0.22218 -0.68457,-0.4408 -1.14102,-0.4408 -0.99471,0 -1.85175,0.81492 -2.52439,1.73426 -0.0354,0.0483 -0.0541,0.10142 -0.0884,0.15038 -0.0578,-0.43566 -0.27514,-0.82151 -0.57464,-1.10691 -0.34213,-0.32603 -0.75596,-0.56224 -1.21388,-0.56224 -0.12855,0 -0.23187,0.0717 -0.34675,0.10904 0.19988,-0.30415 0.47216,-0.82044 0.62218,-1.01803 0.0522,-0.0688 0.0805,-0.15286 0.0806,-0.23926 0,-0.34765 -0.23813,-0.61497 -0.48111,-0.75241 -0.24297,-0.13744 -0.51633,-0.19534 -0.78858,-0.19534 z m 0,0.39636 c 0.41647,0 0.87333,0.20157 0.87333,0.55087 -0.55082,0.72547 -1.45115,2.17675 -2.20348,3.60082 0.75233,-1.03447 1.6661,-2.05569 2.24379,-2.05569 0.59112,0 1.43712,0.72561 1.43712,1.45107 0,1.33002 -1.61192,4.37958 -2.95537,4.37958 -0.79264,0 -1.37049,-0.73904 -1.65262,-1.4242 -0.24182,0.40303 -0.41651,0.72555 -0.45682,0.87333 -0.0134,0.0806 -0.0269,0.1478 -0.0269,0.21497 0,0.16122 -0.12094,0.3359 -0.28215,0.3359 -0.24182,0 -0.99374,-0.3897 -0.99374,-0.96738 0,-0.91355 2.53895,-5.54862 3.39876,-6.71742 0.12091,-0.16122 0.36279,-0.24185 0.61805,-0.24185 z m 11.19467,0 c 0.41647,0 0.87333,0.20157 0.87333,0.55087 -0.55082,0.72547 -1.45063,2.17675 -2.20297,3.60082 0.75234,-1.03447 1.66559,-2.05569 2.24327,-2.05569 0.59113,0 1.43764,0.72561 1.43764,1.45107 0,1.33002 -1.61243,4.37958 -2.95589,4.37958 -0.79264,0 -1.36997,-0.73904 -1.65209,-1.4242 -0.24183,0.40303 -0.41652,0.72555 -0.45682,0.87333 -0.0134,0.0806 -0.0269,0.1478 -0.0269,0.21497 0,0.16122 -0.12093,0.3359 -0.28215,0.3359 -0.19137,0 -0.69735,-0.24646 -0.90227,-0.63459 -0.27742,0.32704 -0.55768,0.56741 -0.79943,0.56741 -0.71204,0 -1.30278,-0.63156 -1.464,-1.35702 -0.52395,0.7792 -1.04803,1.4242 -1.4242,1.4242 -0.44334,0 -1.55856,-0.84656 -1.55856,-1.89446 0,-1.34346 1.80055,-4.15117 3.29179,-4.15117 0.63142,0 1.28934,0.67182 1.49086,0.90021 0.0672,-0.0537 0.18812,-0.0806 0.30903,-0.0806 0.3896,0 0.92707,0.22844 0.92707,0.53744 -0.79264,0.91355 -1.77353,2.4583 -1.77353,2.98224 0,0.10748 0.0403,0.17467 0.14779,0.17467 0.38844,0 0.91253,-0.54368 1.33946,-1.06919 0.79927,-1.75027 2.21678,-4.26325 2.8205,-5.08392 0.12091,-0.16122 0.36279,-0.24185 0.61805,-0.24185 z m -22.69836,1.37666 c 0.0258,0 0.0731,0.006 0.12919,0.0429 0.004,0.003 0.007,0.0199 0.0114,0.0233 -0.0512,-0.0158 -0.0954,-0.0662 -0.14056,-0.0662 z m 7.63933,0 c 0.0258,0 0.0731,0.006 0.12919,0.0429 0.004,0.003 0.007,0.0199 0.0114,0.0233 -0.0512,-0.0158 -0.0954,-0.0662 -0.14056,-0.0662 z m -7.50497,0.20877 c 0.3896,0 0.77876,0.51061 0.77876,0.90021 0,1.63902 -2.72704,5.46788 -3.55999,5.46788 -0.65829,0 -1.477979,-0.61812 -1.840712,-1.30328 -0.376168,0.75234 -0.698177,1.30328 -0.993738,1.30328 -0.631591,0 -1.413766,-0.57849 -1.790071,-1.23558 -0.401337,0.60376 -0.858357,1.14153 -1.227832,1.14153 -0.712032,0 -1.303295,-0.63156 -1.46451,-1.35702 -0.523948,0.7792 -1.048035,1.4242 -1.424203,1.4242 -0.44334,0 -1.558561,-0.84656 -1.558561,-1.89446 0,-1.34346 1.800552,-4.15117 3.291789,-4.15117 0.631424,0 1.289347,0.67182 1.490865,0.90021 0.06717,-0.0537 0.188114,-0.0806 0.309025,-0.0806 0.389603,0 0.927075,0.22844 0.927075,0.53744 -0.792639,0.91355 -1.773018,2.4583 -1.773018,2.98224 0,0.10748 0.04032,0.17467 0.147794,0.17467 0.320523,0 0.739357,-0.3785 1.116728,-0.80512 0.226515,-1.0938 1.064547,-3.01255 1.377177,-3.27887 0.05374,-0.0537 0.147805,-0.0672 0.255282,-0.0672 0.416471,0 1.128618,0.29562 1.182356,0.61805 -0.631424,0.88668 -1.39733,2.74047 -1.39733,3.4122 0,0.16121 0.04032,0.25528 0.134358,0.25528 0.268692,0 0.832562,-0.60469 1.396814,-1.37046 0.32243,-1.11507 0.994282,-2.6195 1.276412,-2.84789 0.0537,-0.0537 0.1478,-0.0672 0.25528,-0.0672 0.41647,0 1.12862,0.29562 1.18235,0.61805 -0.63142,0.88668 -1.39733,2.74047 -1.39733,3.4122 0,0.16121 0.0403,0.25528 0.13436,0.25528 0.67173,0 3.15743,-3.78848 3.15743,-4.60799 0,-0.094 -0.0403,-0.14779 -0.12092,-0.14779 -0.0806,0 -0.12092,-0.0403 -0.12092,-0.0672 0,-0.0537 0.0806,-0.12093 0.25528,-0.12093 z m 7.63933,0 c 0.3896,0 0.77928,0.51061 0.77928,0.90021 0,1.63902 -2.72757,5.46788 -3.56051,5.46788 -0.65829,0 -1.47746,-0.61812 -1.8402,-1.30328 -0.37617,0.75234 -0.69869,1.30328 -0.99425,1.30328 -0.80608,0 -1.8676,-0.94059 -2.00195,-1.78697 0,-0.0403 -0.0134,-0.0806 -0.0134,-0.12092 0,-0.88668 1.0749,-3.42566 1.43763,-3.73466 0.0537,-0.0537 0.14781,-0.0672 0.25529,-0.0672 0.41647,0 1.12861,0.29562 1.18235,0.61805 -0.63142,0.88668 -1.39733,2.74047 -1.39733,3.4122 0,0.16121 0.0403,0.25528 0.13436,0.25528 0.26869,0 0.83308,-0.60469 1.39733,-1.37046 0.32243,-1.11507 0.99428,-2.6195 1.27641,-2.84789 0.0537,-0.0537 0.14729,-0.0672 0.25476,-0.0672 0.41648,0 1.12862,0.29562 1.18236,0.61805 -0.63142,0.88668 -1.39681,2.74047 -1.39681,3.4122 0,0.16121 0.0398,0.25528 0.13384,0.25528 0.67173,0 3.15743,-3.78848 3.15743,-4.60799 0,-0.094 -0.0403,-0.14779 -0.12092,-0.14779 -0.0806,0 -0.12093,-0.0403 -0.12093,-0.0672 0,-0.0537 0.0806,-0.12093 0.25529,-0.12093 z m 19.42051,0.4837 c 0.42991,0 1.11518,0.32249 1.11518,0.65835 -0.83294,0.96729 -2.12287,2.98231 -2.12287,3.55999 0,0.10748 0.0269,0.16123 0.12093,0.16123 0.47021,0 1.97517,-1.73283 2.9962,-3.00912 0.33586,-0.60455 0.64492,-1.0883 0.64492,-1.0883 0.12091,-0.18808 0.32248,-0.26872 0.53743,-0.26872 0.53739,0 1.08779,0.38967 1.08779,0.72554 -1.57184,1.18224 -2.69992,8.40982 -6.21977,8.40982 -1.20912,0 -1.85415,-0.7654 -1.85415,-1.47743 0,-0.59112 0.33591,-0.76584 0.49712,-0.76584 0.0403,0 0.0806,0.0134 0.0806,0.0269 -0.0269,0.0537 -0.0403,0.10749 -0.0403,0.1881 0,0.309 0.22847,0.79272 0.79272,0.79272 1.53154,0 2.60613,-2.14994 3.49281,-4.19199 -0.12091,0.16121 -0.21499,0.29559 -0.22841,0.32246 -0.42991,0.67172 -0.73901,1.0749 -1.07487,1.43763 -0.22839,0.24183 -0.41653,0.38965 -0.53744,0.38965 -0.83294,0 -1.77301,-0.98091 -1.77301,-1.86759 0,-0.76577 1.77306,-3.5869 2.2164,-3.93619 0.0672,-0.0403 0.16123,-0.0672 0.26871,-0.0672 z m -36.284602,0.72553 c -0.752335,0 -2.445328,2.45833 -2.445328,3.27784 0,0.16121 0.09406,0.24184 0.174666,0.24184 0.604556,0 2.431928,-2.60609 2.794661,-3.10317 -0.107476,-0.17464 -0.295611,-0.41651 -0.523999,-0.41651 z m 21.333062,0 c -0.3896,0 -1.78706,1.84033 -2.68717,3.21066 0.24182,0.29556 0.57776,0.57774 0.80615,0.57774 0.84638,0 2.12287,-2.47177 2.12287,-3.42563 0,-0.22839 -0.0672,-0.36277 -0.24185,-0.36277 z m 5.14077,0 c -0.75233,0 -2.44532,2.45833 -2.44532,3.27784 0,0.16121 0.094,0.24184 0.17466,0.24184 0.60456,0 2.43141,-2.60609 2.79415,-3.10317 -0.10748,-0.17464 -0.2951,-0.41651 -0.52349,-0.41651 z m 6.0539,0 c -0.3896,0 -1.78654,1.84033 -2.68666,3.21066 0.24182,0.29556 0.57725,0.57774 0.80564,0.57774 0.84638,0 2.12286,-2.47177 2.12286,-3.42563 0,-0.22839 -0.0672,-0.36277 -0.24184,-0.36277 z m -32.527732,0.39739 c -0.01644,0 0.009,0.0145 0.02377,0.0238 -0.241051,0.33419 -0.627305,0.88088 -1.115178,1.48363 -0.274514,0.33915 -0.55281,0.6552 -0.789099,0.88573 0.03209,-0.0827 0.02247,-0.10361 0.0677,-0.19534 0.158006,-0.32048 0.383242,-0.68893 0.629936,-1.03094 0.246694,-0.34201 0.51616,-0.65852 0.751375,-0.87488 0.235215,-0.21636 0.459569,-0.29198 0.431498,-0.29198 z m 26.473832,0 c -0.0164,0 0.009,0.0145 0.0238,0.0238 -0.24105,0.33419 -0.62679,0.88088 -1.11467,1.48363 -0.27495,0.33969 -0.5536,0.6572 -0.79013,0.8878 0.0322,-0.0833 0.0221,-0.1049 0.0677,-0.19741 0.158,-0.32048 0.38324,-0.68893 0.62993,-1.03094 0.2467,-0.34201 0.5172,-0.65852 0.75241,-0.87488 0.23522,-0.21636 0.45906,-0.29198 0.43098,-0.29198 z m 5.77226,0.30955 c -0.0819,0.39679 -0.23614,0.96005 -0.56379,1.52859 -0.20069,0.34824 -0.4276,0.66519 -0.632,0.87643 -0.19674,0.20332 -0.36406,0.26987 -0.39326,0.27492 -0.0143,-0.009 -0.0887,-0.0336 -0.16898,-0.094 -0.0406,-0.0306 -0.0831,-0.0836 -0.12661,-0.12403 0.41294,-0.61308 0.88687,-1.28731 1.32344,-1.82728 0.21149,-0.26158 0.39562,-0.46424 0.5612,-0.63458 z m -11.19621,0.002 c -0.0823,0.39701 -0.2355,0.95918 -0.56276,1.52704 -0.2007,0.34824 -0.42657,0.66519 -0.63097,0.87643 -0.19677,0.20334 -0.36506,0.26989 -0.39429,0.27492 -0.0143,-0.009 -0.0886,-0.0336 -0.16898,-0.094 -0.0406,-0.0306 -0.0831,-0.0836 -0.12661,-0.12403 0.41294,-0.61308 0.88686,-1.28731 1.32343,-1.82728 0.2109,-0.26084 0.39487,-0.46283 0.56018,-0.63303 z m 7.48378,0.5519 c -0.18182,0.36011 -0.35079,0.70564 -0.50126,1.03301 -0.0302,0.037 -0.0511,0.0686 -0.0822,0.10542 -0.16181,0.19191 -0.33013,0.35906 -0.48989,0.50281 0.0907,-0.18722 0.19438,-0.38859 0.33176,-0.61443 0.21517,-0.35371 0.48345,-0.68633 0.74156,-1.02681 z m -27.144599,0.92811 c -0.04039,0.13562 -0.04024,0.24342 -0.06925,0.37155 -0.112777,0.12492 -0.224545,0.242 -0.332797,0.33952 0.09062,-0.18693 0.193672,-0.38706 0.330729,-0.61237 0.02066,-0.034 0.04989,-0.0644 0.07131,-0.0987 z m 31.423919,3.84008 c -0.025,0.0499 -0.0266,0.11813 -0.0408,0.18035 -2e-5,-0.002 -5.2e-4,-0.001 -5.2e-4,-0.003 z"
       style="-inkscape-font-specification:'Bhineka Script, Normal';baseline-shift:baseline;display:inline;overflow:visible;vector-effect:none;fill:#cdd6f4;stroke-linecap:round;stroke-linejoin:round;paint-order:markers stroke fill;enable-background:accumulate;stop-color:#000000;stop-opacity:1"
       id="path23" /></g></svg>
