<svg xmlns="http://www.w3.org/2000/svg" version="1.1" xmlns:xlink="http://www.w3.org/1999/xlink" xmlns:svgjs="http://svgjs.dev/svgjs" viewBox="0 0 800 800" width="800" height="800"><g stroke-width="7" stroke="#1e1e2eb2" fill="none"><circle r="8.710526315789474" cx="0" cy="0" fill="#1e1e2eb2" stroke="none"></circle><circle r="8.710526315789474" cx="72.72727272727273" cy="0" fill="#1e1e2eb2" stroke="none"></circle><circle r="8.710526315789474" cx="145.45454545454547" cy="0" fill="#1e1e2eb2" stroke="none"></circle><circle r="8.710526315789474" cx="218.1818181818182" cy="0" fill="#1e1e2eb2" stroke="none"></circle><circle r="8.710526315789474" cx="290.90909090909093" cy="0" fill="#1e1e2eb2" stroke="none"></circle><circle r="8.710526315789474" cx="363.6363636363637" cy="0" fill="#1e1e2eb2" stroke="none"></circle><circle r="8.710526315789474" cx="436.36363636363643" cy="0" fill="#1e1e2eb2" stroke="none"></circle><circle r="8.710526315789474" cx="509.0909090909092" cy="0" fill="#1e1e2eb2" stroke="none"></circle><circle r="8.710526315789474" cx="581.8181818181819" cy="0" fill="#1e1e2eb2" stroke="none"></circle><circle r="8.710526315789474" cx="654.5454545454546" cy="0" fill="#1e1e2eb2" stroke="none"></circle><circle r="8.710526315789474" cx="727.2727272727274" cy="0" fill="#1e1e2eb2" stroke="none"></circle><circle r="8.710526315789474" cx="800.0000000000001" cy="0" fill="#1e1e2eb2" stroke="none"></circle><circle r="8.710526315789474" cx="0" cy="44.44444444444444" fill="#1e1e2eb2" stroke="none"></circle><circle r="8.710526315789474" cx="72.72727272727273" cy="44.44444444444444" fill="#1e1e2eb2" stroke="none"></circle><circle r="8.710526315789474" cx="145.45454545454547" cy="44.44444444444444" fill="#1e1e2eb2" stroke="none"></circle><circle r="8.710526315789474" cx="218.1818181818182" cy="44.44444444444444" fill="#1e1e2eb2" stroke="none"></circle><circle r="8.710526315789474" cx="290.90909090909093" cy="44.44444444444444" fill="#1e1e2eb2" stroke="none"></circle><circle r="8.710526315789474" cx="363.6363636363637" cy="44.44444444444444" fill="#1e1e2eb2" stroke="none"></circle><circle r="8.710526315789474" cx="436.36363636363643" cy="44.44444444444444" fill="#1e1e2eb2" stroke="none"></circle><circle r="8.710526315789474" cx="509.0909090909092" cy="44.44444444444444" fill="#1e1e2eb2" stroke="none"></circle><circle r="8.710526315789474" cx="581.8181818181819" cy="44.44444444444444" fill="#1e1e2eb2" stroke="none"></circle><circle r="8.710526315789474" cx="654.5454545454546" cy="44.44444444444444" fill="#1e1e2eb2" stroke="none"></circle><circle r="8.710526315789474" cx="727.2727272727274" cy="44.44444444444444" fill="#1e1e2eb2" stroke="none"></circle><circle r="8.710526315789474" cx="800.0000000000001" cy="44.44444444444444" fill="#1e1e2eb2" stroke="none"></circle><circle r="8.710526315789474" cx="0" cy="88.88888888888889" fill="#1e1e2eb2" stroke="none"></circle><circle r="8.710526315789474" cx="72.72727272727273" cy="88.88888888888889" fill="#1e1e2eb2" stroke="none"></circle><circle r="8.710526315789474" cx="145.45454545454547" cy="88.88888888888889" fill="#1e1e2eb2" stroke="none"></circle><circle r="8.710526315789474" cx="218.1818181818182" cy="88.88888888888889" fill="#1e1e2eb2" stroke="none"></circle><circle r="8.710526315789474" cx="290.90909090909093" cy="88.88888888888889" fill="#1e1e2eb2" stroke="none"></circle><circle r="8.710526315789474" cx="363.6363636363637" cy="88.88888888888889" fill="#1e1e2eb2" stroke="none"></circle><circle r="8.710526315789474" cx="436.36363636363643" cy="88.88888888888889" fill="#1e1e2eb2" stroke="none"></circle><circle r="8.710526315789474" cx="509.0909090909092" cy="88.88888888888889" fill="#1e1e2eb2" stroke="none"></circle><circle r="8.710526315789474" cx="581.8181818181819" cy="88.88888888888889" fill="#1e1e2eb2" stroke="none"></circle><circle r="8.710526315789474" cx="654.5454545454546" cy="88.88888888888889" fill="#1e1e2eb2" stroke="none"></circle><circle r="8.710526315789474" cx="727.2727272727274" cy="88.88888888888889" fill="#1e1e2eb2" stroke="none"></circle><circle r="8.710526315789474" cx="800.0000000000001" cy="88.88888888888889" fill="#1e1e2eb2" stroke="none"></circle><circle r="8.710526315789474" cx="0" cy="133.33333333333331" fill="#1e1e2eb2" stroke="none"></circle><circle r="8.710526315789474" cx="72.72727272727273" cy="133.33333333333331" fill="#1e1e2eb2" stroke="none"></circle><circle r="8.710526315789474" cx="145.45454545454547" cy="133.33333333333331" fill="#1e1e2eb2" stroke="none"></circle><circle r="8.710526315789474" cx="218.1818181818182" cy="133.33333333333331" fill="#1e1e2eb2" stroke="none"></circle><circle r="8.710526315789474" cx="290.90909090909093" cy="133.33333333333331" fill="#1e1e2eb2" stroke="none"></circle><circle r="8.710526315789474" cx="363.6363636363637" cy="133.33333333333331" fill="#1e1e2eb2" stroke="none"></circle><circle r="8.710526315789474" cx="436.36363636363643" cy="133.33333333333331" fill="#1e1e2eb2" stroke="none"></circle><circle r="8.710526315789474" cx="509.0909090909092" cy="133.33333333333331" fill="#1e1e2eb2" stroke="none"></circle><circle r="8.710526315789474" cx="581.8181818181819" cy="133.33333333333331" fill="#1e1e2eb2" stroke="none"></circle><circle r="8.710526315789474" cx="654.5454545454546" cy="133.33333333333331" fill="#1e1e2eb2" stroke="none"></circle><circle r="8.710526315789474" cx="727.2727272727274" cy="133.33333333333331" fill="#1e1e2eb2" stroke="none"></circle><circle r="8.710526315789474" cx="800.0000000000001" cy="133.33333333333331" fill="#1e1e2eb2" stroke="none"></circle><circle r="8.710526315789474" cx="0" cy="177.77777777777777" fill="#1e1e2eb2" stroke="none"></circle><circle r="8.710526315789474" cx="72.72727272727273" cy="177.77777777777777" fill="#1e1e2eb2" stroke="none"></circle><circle r="8.710526315789474" cx="145.45454545454547" cy="177.77777777777777" fill="#1e1e2eb2" stroke="none"></circle><circle r="8.710526315789474" cx="218.1818181818182" cy="177.77777777777777" fill="#1e1e2eb2" stroke="none"></circle><circle r="8.710526315789474" cx="290.90909090909093" cy="177.77777777777777" fill="#1e1e2eb2" stroke="none"></circle><circle r="8.710526315789474" cx="363.6363636363637" cy="177.77777777777777" fill="#1e1e2eb2" stroke="none"></circle><circle r="8.710526315789474" cx="436.36363636363643" cy="177.77777777777777" fill="#1e1e2eb2" stroke="none"></circle><circle r="8.710526315789474" cx="509.0909090909092" cy="177.77777777777777" fill="#1e1e2eb2" stroke="none"></circle><circle r="8.710526315789474" cx="581.8181818181819" cy="177.77777777777777" fill="#1e1e2eb2" stroke="none"></circle><circle r="8.710526315789474" cx="654.5454545454546" cy="177.77777777777777" fill="#1e1e2eb2" stroke="none"></circle><circle r="8.710526315789474" cx="727.2727272727274" cy="177.77777777777777" fill="#1e1e2eb2" stroke="none"></circle><circle r="8.710526315789474" cx="800.0000000000001" cy="177.77777777777777" fill="#1e1e2eb2" stroke="none"></circle><circle r="8.710526315789474" cx="0" cy="222.22222222222223" fill="#1e1e2eb2" stroke="none"></circle><circle r="8.710526315789474" cx="72.72727272727273" cy="222.22222222222223" fill="#1e1e2eb2" stroke="none"></circle><circle r="8.710526315789474" cx="145.45454545454547" cy="222.22222222222223" fill="#1e1e2eb2" stroke="none"></circle><circle r="8.710526315789474" cx="218.1818181818182" cy="222.22222222222223" fill="#1e1e2eb2" stroke="none"></circle><circle r="8.710526315789474" cx="290.90909090909093" cy="222.22222222222223" fill="#1e1e2eb2" stroke="none"></circle><circle r="8.710526315789474" cx="363.6363636363637" cy="222.22222222222223" fill="#1e1e2eb2" stroke="none"></circle><circle r="8.710526315789474" cx="436.36363636363643" cy="222.22222222222223" fill="#1e1e2eb2" stroke="none"></circle><circle r="8.710526315789474" cx="509.0909090909092" cy="222.22222222222223" fill="#1e1e2eb2" stroke="none"></circle><circle r="8.710526315789474" cx="581.8181818181819" cy="222.22222222222223" fill="#1e1e2eb2" stroke="none"></circle><circle r="8.710526315789474" cx="654.5454545454546" cy="222.22222222222223" fill="#1e1e2eb2" stroke="none"></circle><circle r="8.710526315789474" cx="727.2727272727274" cy="222.22222222222223" fill="#1e1e2eb2" stroke="none"></circle><circle r="8.710526315789474" cx="800.0000000000001" cy="222.22222222222223" fill="#1e1e2eb2" stroke="none"></circle><circle r="8.710526315789474" cx="0" cy="266.6666666666667" fill="#1e1e2eb2" stroke="none"></circle><circle r="8.710526315789474" cx="72.72727272727273" cy="266.6666666666667" fill="#1e1e2eb2" stroke="none"></circle><circle r="8.710526315789474" cx="145.45454545454547" cy="266.6666666666667" fill="#1e1e2eb2" stroke="none"></circle><circle r="8.710526315789474" cx="218.1818181818182" cy="266.6666666666667" fill="#1e1e2eb2" stroke="none"></circle><circle r="8.710526315789474" cx="290.90909090909093" cy="266.6666666666667" fill="#1e1e2eb2" stroke="none"></circle><circle r="8.710526315789474" cx="363.6363636363637" cy="266.6666666666667" fill="#1e1e2eb2" stroke="none"></circle><circle r="8.710526315789474" cx="436.36363636363643" cy="266.6666666666667" fill="#1e1e2eb2" stroke="none"></circle><circle r="8.710526315789474" cx="509.0909090909092" cy="266.6666666666667" fill="#1e1e2eb2" stroke="none"></circle><circle r="8.710526315789474" cx="581.8181818181819" cy="266.6666666666667" fill="#1e1e2eb2" stroke="none"></circle><circle r="8.710526315789474" cx="654.5454545454546" cy="266.6666666666667" fill="#1e1e2eb2" stroke="none"></circle><circle r="8.710526315789474" cx="727.2727272727274" cy="266.6666666666667" fill="#1e1e2eb2" stroke="none"></circle><circle r="8.710526315789474" cx="800.0000000000001" cy="266.6666666666667" fill="#1e1e2eb2" stroke="none"></circle><circle r="8.710526315789474" cx="0" cy="311.11111111111114" fill="#1e1e2eb2" stroke="none"></circle><circle r="8.710526315789474" cx="72.72727272727273" cy="311.11111111111114" fill="#1e1e2eb2" stroke="none"></circle><circle r="8.710526315789474" cx="145.45454545454547" cy="311.11111111111114" fill="#1e1e2eb2" stroke="none"></circle><circle r="8.710526315789474" cx="218.1818181818182" cy="311.11111111111114" fill="#1e1e2eb2" stroke="none"></circle><circle r="8.710526315789474" cx="290.90909090909093" cy="311.11111111111114" fill="#1e1e2eb2" stroke="none"></circle><circle r="8.710526315789474" cx="363.6363636363637" cy="311.11111111111114" fill="#1e1e2eb2" stroke="none"></circle><circle r="8.710526315789474" cx="436.36363636363643" cy="311.11111111111114" fill="#1e1e2eb2" stroke="none"></circle><circle r="8.710526315789474" cx="509.0909090909092" cy="311.11111111111114" fill="#1e1e2eb2" stroke="none"></circle><circle r="8.710526315789474" cx="581.8181818181819" cy="311.11111111111114" fill="#1e1e2eb2" stroke="none"></circle><circle r="8.710526315789474" cx="654.5454545454546" cy="311.11111111111114" fill="#1e1e2eb2" stroke="none"></circle><circle r="8.710526315789474" cx="727.2727272727274" cy="311.11111111111114" fill="#1e1e2eb2" stroke="none"></circle><circle r="8.710526315789474" cx="800.0000000000001" cy="311.11111111111114" fill="#1e1e2eb2" stroke="none"></circle><circle r="8.710526315789474" cx="0" cy="355.5555555555556" fill="#1e1e2eb2" stroke="none"></circle><circle r="8.710526315789474" cx="72.72727272727273" cy="355.5555555555556" fill="#1e1e2eb2" stroke="none"></circle><circle r="8.710526315789474" cx="145.45454545454547" cy="355.5555555555556" fill="#1e1e2eb2" stroke="none"></circle><circle r="8.710526315789474" cx="218.1818181818182" cy="355.5555555555556" fill="#1e1e2eb2" stroke="none"></circle><circle r="8.710526315789474" cx="290.90909090909093" cy="355.5555555555556" fill="#1e1e2eb2" stroke="none"></circle><circle r="8.710526315789474" cx="363.6363636363637" cy="355.5555555555556" fill="#1e1e2eb2" stroke="none"></circle><circle r="8.710526315789474" cx="436.36363636363643" cy="355.5555555555556" fill="#1e1e2eb2" stroke="none"></circle><circle r="8.710526315789474" cx="509.0909090909092" cy="355.5555555555556" fill="#1e1e2eb2" stroke="none"></circle><circle r="8.710526315789474" cx="581.8181818181819" cy="355.5555555555556" fill="#1e1e2eb2" stroke="none"></circle><circle r="8.710526315789474" cx="654.5454545454546" cy="355.5555555555556" fill="#1e1e2eb2" stroke="none"></circle><circle r="8.710526315789474" cx="727.2727272727274" cy="355.5555555555556" fill="#1e1e2eb2" stroke="none"></circle><circle r="8.710526315789474" cx="800.0000000000001" cy="355.5555555555556" fill="#1e1e2eb2" stroke="none"></circle><circle r="8.710526315789474" cx="0" cy="400.00000000000006" fill="#1e1e2eb2" stroke="none"></circle><circle r="8.710526315789474" cx="72.72727272727273" cy="400.00000000000006" fill="#1e1e2eb2" stroke="none"></circle><circle r="8.710526315789474" cx="145.45454545454547" cy="400.00000000000006" fill="#1e1e2eb2" stroke="none"></circle><circle r="8.710526315789474" cx="218.1818181818182" cy="400.00000000000006" fill="#1e1e2eb2" stroke="none"></circle><circle r="8.710526315789474" cx="290.90909090909093" cy="400.00000000000006" fill="#1e1e2eb2" stroke="none"></circle><circle r="8.710526315789474" cx="363.6363636363637" cy="400.00000000000006" fill="#1e1e2eb2" stroke="none"></circle><circle r="8.710526315789474" cx="436.36363636363643" cy="400.00000000000006" fill="#1e1e2eb2" stroke="none"></circle><circle r="8.710526315789474" cx="509.0909090909092" cy="400.00000000000006" fill="#1e1e2eb2" stroke="none"></circle><circle r="8.710526315789474" cx="581.8181818181819" cy="400.00000000000006" fill="#1e1e2eb2" stroke="none"></circle><circle r="8.710526315789474" cx="654.5454545454546" cy="400.00000000000006" fill="#1e1e2eb2" stroke="none"></circle><circle r="8.710526315789474" cx="727.2727272727274" cy="400.00000000000006" fill="#1e1e2eb2" stroke="none"></circle><circle r="8.710526315789474" cx="800.0000000000001" cy="400.00000000000006" fill="#1e1e2eb2" stroke="none"></circle><circle r="8.710526315789474" cx="0" cy="444.4444444444445" fill="#1e1e2eb2" stroke="none"></circle><circle r="8.710526315789474" cx="72.72727272727273" cy="444.4444444444445" fill="#1e1e2eb2" stroke="none"></circle><circle r="8.710526315789474" cx="145.45454545454547" cy="444.4444444444445" fill="#1e1e2eb2" stroke="none"></circle><circle r="8.710526315789474" cx="218.1818181818182" cy="444.4444444444445" fill="#1e1e2eb2" stroke="none"></circle><circle r="8.710526315789474" cx="290.90909090909093" cy="444.4444444444445" fill="#1e1e2eb2" stroke="none"></circle><circle r="8.710526315789474" cx="363.6363636363637" cy="444.4444444444445" fill="#1e1e2eb2" stroke="none"></circle><circle r="8.710526315789474" cx="436.36363636363643" cy="444.4444444444445" fill="#1e1e2eb2" stroke="none"></circle><circle r="8.710526315789474" cx="509.0909090909092" cy="444.4444444444445" fill="#1e1e2eb2" stroke="none"></circle><circle r="8.710526315789474" cx="581.8181818181819" cy="444.4444444444445" fill="#1e1e2eb2" stroke="none"></circle><circle r="8.710526315789474" cx="654.5454545454546" cy="444.4444444444445" fill="#1e1e2eb2" stroke="none"></circle><circle r="8.710526315789474" cx="727.2727272727274" cy="444.4444444444445" fill="#1e1e2eb2" stroke="none"></circle><circle r="8.710526315789474" cx="800.0000000000001" cy="444.4444444444445" fill="#1e1e2eb2" stroke="none"></circle><circle r="8.710526315789474" cx="0" cy="488.88888888888897" fill="#1e1e2eb2" stroke="none"></circle><circle r="8.710526315789474" cx="72.72727272727273" cy="488.88888888888897" fill="#1e1e2eb2" stroke="none"></circle><circle r="8.710526315789474" cx="145.45454545454547" cy="488.88888888888897" fill="#1e1e2eb2" stroke="none"></circle><circle r="8.710526315789474" cx="218.1818181818182" cy="488.88888888888897" fill="#1e1e2eb2" stroke="none"></circle><circle r="8.710526315789474" cx="290.90909090909093" cy="488.88888888888897" fill="#1e1e2eb2" stroke="none"></circle><circle r="8.710526315789474" cx="363.6363636363637" cy="488.88888888888897" fill="#1e1e2eb2" stroke="none"></circle><circle r="8.710526315789474" cx="436.36363636363643" cy="488.88888888888897" fill="#1e1e2eb2" stroke="none"></circle><circle r="8.710526315789474" cx="509.0909090909092" cy="488.88888888888897" fill="#1e1e2eb2" stroke="none"></circle><circle r="8.710526315789474" cx="581.8181818181819" cy="488.88888888888897" fill="#1e1e2eb2" stroke="none"></circle><circle r="8.710526315789474" cx="654.5454545454546" cy="488.88888888888897" fill="#1e1e2eb2" stroke="none"></circle><circle r="8.710526315789474" cx="727.2727272727274" cy="488.88888888888897" fill="#1e1e2eb2" stroke="none"></circle><circle r="8.710526315789474" cx="800.0000000000001" cy="488.88888888888897" fill="#1e1e2eb2" stroke="none"></circle><circle r="8.710526315789474" cx="0" cy="533.3333333333334" fill="#1e1e2eb2" stroke="none"></circle><circle r="8.710526315789474" cx="72.72727272727273" cy="533.3333333333334" fill="#1e1e2eb2" stroke="none"></circle><circle r="8.710526315789474" cx="145.45454545454547" cy="533.3333333333334" fill="#1e1e2eb2" stroke="none"></circle><circle r="8.710526315789474" cx="218.1818181818182" cy="533.3333333333334" fill="#1e1e2eb2" stroke="none"></circle><circle r="8.710526315789474" cx="290.90909090909093" cy="533.3333333333334" fill="#1e1e2eb2" stroke="none"></circle><circle r="8.710526315789474" cx="363.6363636363637" cy="533.3333333333334" fill="#1e1e2eb2" stroke="none"></circle><circle r="8.710526315789474" cx="436.36363636363643" cy="533.3333333333334" fill="#1e1e2eb2" stroke="none"></circle><circle r="8.710526315789474" cx="509.0909090909092" cy="533.3333333333334" fill="#1e1e2eb2" stroke="none"></circle><circle r="8.710526315789474" cx="581.8181818181819" cy="533.3333333333334" fill="#1e1e2eb2" stroke="none"></circle><circle r="8.710526315789474" cx="654.5454545454546" cy="533.3333333333334" fill="#1e1e2eb2" stroke="none"></circle><circle r="8.710526315789474" cx="727.2727272727274" cy="533.3333333333334" fill="#1e1e2eb2" stroke="none"></circle><circle r="8.710526315789474" cx="800.0000000000001" cy="533.3333333333334" fill="#1e1e2eb2" stroke="none"></circle><circle r="8.710526315789474" cx="0" cy="577.7777777777778" fill="#1e1e2eb2" stroke="none"></circle><circle r="8.710526315789474" cx="72.72727272727273" cy="577.7777777777778" fill="#1e1e2eb2" stroke="none"></circle><circle r="8.710526315789474" cx="145.45454545454547" cy="577.7777777777778" fill="#1e1e2eb2" stroke="none"></circle><circle r="8.710526315789474" cx="218.1818181818182" cy="577.7777777777778" fill="#1e1e2eb2" stroke="none"></circle><circle r="8.710526315789474" cx="290.90909090909093" cy="577.7777777777778" fill="#1e1e2eb2" stroke="none"></circle><circle r="8.710526315789474" cx="363.6363636363637" cy="577.7777777777778" fill="#1e1e2eb2" stroke="none"></circle><circle r="8.710526315789474" cx="436.36363636363643" cy="577.7777777777778" fill="#1e1e2eb2" stroke="none"></circle><circle r="8.710526315789474" cx="509.0909090909092" cy="577.7777777777778" fill="#1e1e2eb2" stroke="none"></circle><circle r="8.710526315789474" cx="581.8181818181819" cy="577.7777777777778" fill="#1e1e2eb2" stroke="none"></circle><circle r="8.710526315789474" cx="654.5454545454546" cy="577.7777777777778" fill="#1e1e2eb2" stroke="none"></circle><circle r="8.710526315789474" cx="727.2727272727274" cy="577.7777777777778" fill="#1e1e2eb2" stroke="none"></circle><circle r="8.710526315789474" cx="800.0000000000001" cy="577.7777777777778" fill="#1e1e2eb2" stroke="none"></circle><circle r="8.710526315789474" cx="0" cy="622.2222222222223" fill="#1e1e2eb2" stroke="none"></circle><circle r="8.710526315789474" cx="72.72727272727273" cy="622.2222222222223" fill="#1e1e2eb2" stroke="none"></circle><circle r="8.710526315789474" cx="145.45454545454547" cy="622.2222222222223" fill="#1e1e2eb2" stroke="none"></circle><circle r="8.710526315789474" cx="218.1818181818182" cy="622.2222222222223" fill="#1e1e2eb2" stroke="none"></circle><circle r="8.710526315789474" cx="290.90909090909093" cy="622.2222222222223" fill="#1e1e2eb2" stroke="none"></circle><circle r="8.710526315789474" cx="363.6363636363637" cy="622.2222222222223" fill="#1e1e2eb2" stroke="none"></circle><circle r="8.710526315789474" cx="436.36363636363643" cy="622.2222222222223" fill="#1e1e2eb2" stroke="none"></circle><circle r="8.710526315789474" cx="509.0909090909092" cy="622.2222222222223" fill="#1e1e2eb2" stroke="none"></circle><circle r="8.710526315789474" cx="581.8181818181819" cy="622.2222222222223" fill="#1e1e2eb2" stroke="none"></circle><circle r="8.710526315789474" cx="654.5454545454546" cy="622.2222222222223" fill="#1e1e2eb2" stroke="none"></circle><circle r="8.710526315789474" cx="727.2727272727274" cy="622.2222222222223" fill="#1e1e2eb2" stroke="none"></circle><circle r="8.710526315789474" cx="800.0000000000001" cy="622.2222222222223" fill="#1e1e2eb2" stroke="none"></circle><circle r="8.710526315789474" cx="0" cy="666.6666666666667" fill="#1e1e2eb2" stroke="none"></circle><circle r="8.710526315789474" cx="72.72727272727273" cy="666.6666666666667" fill="#1e1e2eb2" stroke="none"></circle><circle r="8.710526315789474" cx="145.45454545454547" cy="666.6666666666667" fill="#1e1e2eb2" stroke="none"></circle><circle r="8.710526315789474" cx="218.1818181818182" cy="666.6666666666667" fill="#1e1e2eb2" stroke="none"></circle><circle r="8.710526315789474" cx="290.90909090909093" cy="666.6666666666667" fill="#1e1e2eb2" stroke="none"></circle><circle r="8.710526315789474" cx="363.6363636363637" cy="666.6666666666667" fill="#1e1e2eb2" stroke="none"></circle><circle r="8.710526315789474" cx="436.36363636363643" cy="666.6666666666667" fill="#1e1e2eb2" stroke="none"></circle><circle r="8.710526315789474" cx="509.0909090909092" cy="666.6666666666667" fill="#1e1e2eb2" stroke="none"></circle><circle r="8.710526315789474" cx="581.8181818181819" cy="666.6666666666667" fill="#1e1e2eb2" stroke="none"></circle><circle r="8.710526315789474" cx="654.5454545454546" cy="666.6666666666667" fill="#1e1e2eb2" stroke="none"></circle><circle r="8.710526315789474" cx="727.2727272727274" cy="666.6666666666667" fill="#1e1e2eb2" stroke="none"></circle><circle r="8.710526315789474" cx="800.0000000000001" cy="666.6666666666667" fill="#1e1e2eb2" stroke="none"></circle><circle r="8.710526315789474" cx="0" cy="711.1111111111112" fill="#1e1e2eb2" stroke="none"></circle><circle r="8.710526315789474" cx="72.72727272727273" cy="711.1111111111112" fill="#1e1e2eb2" stroke="none"></circle><circle r="8.710526315789474" cx="145.45454545454547" cy="711.1111111111112" fill="#1e1e2eb2" stroke="none"></circle><circle r="8.710526315789474" cx="218.1818181818182" cy="711.1111111111112" fill="#1e1e2eb2" stroke="none"></circle><circle r="8.710526315789474" cx="290.90909090909093" cy="711.1111111111112" fill="#1e1e2eb2" stroke="none"></circle><circle r="8.710526315789474" cx="363.6363636363637" cy="711.1111111111112" fill="#1e1e2eb2" stroke="none"></circle><circle r="8.710526315789474" cx="436.36363636363643" cy="711.1111111111112" fill="#1e1e2eb2" stroke="none"></circle><circle r="8.710526315789474" cx="509.0909090909092" cy="711.1111111111112" fill="#1e1e2eb2" stroke="none"></circle><circle r="8.710526315789474" cx="581.8181818181819" cy="711.1111111111112" fill="#1e1e2eb2" stroke="none"></circle><circle r="8.710526315789474" cx="654.5454545454546" cy="711.1111111111112" fill="#1e1e2eb2" stroke="none"></circle><circle r="8.710526315789474" cx="727.2727272727274" cy="711.1111111111112" fill="#1e1e2eb2" stroke="none"></circle><circle r="8.710526315789474" cx="800.0000000000001" cy="711.1111111111112" fill="#1e1e2eb2" stroke="none"></circle><circle r="8.710526315789474" cx="0" cy="755.5555555555557" fill="#1e1e2eb2" stroke="none"></circle><circle r="8.710526315789474" cx="72.72727272727273" cy="755.5555555555557" fill="#1e1e2eb2" stroke="none"></circle><circle r="8.710526315789474" cx="145.45454545454547" cy="755.5555555555557" fill="#1e1e2eb2" stroke="none"></circle><circle r="8.710526315789474" cx="218.1818181818182" cy="755.5555555555557" fill="#1e1e2eb2" stroke="none"></circle><circle r="8.710526315789474" cx="290.90909090909093" cy="755.5555555555557" fill="#1e1e2eb2" stroke="none"></circle><circle r="8.710526315789474" cx="363.6363636363637" cy="755.5555555555557" fill="#1e1e2eb2" stroke="none"></circle><circle r="8.710526315789474" cx="436.36363636363643" cy="755.5555555555557" fill="#1e1e2eb2" stroke="none"></circle><circle r="8.710526315789474" cx="509.0909090909092" cy="755.5555555555557" fill="#1e1e2eb2" stroke="none"></circle><circle r="8.710526315789474" cx="581.8181818181819" cy="755.5555555555557" fill="#1e1e2eb2" stroke="none"></circle><circle r="8.710526315789474" cx="654.5454545454546" cy="755.5555555555557" fill="#1e1e2eb2" stroke="none"></circle><circle r="8.710526315789474" cx="727.2727272727274" cy="755.5555555555557" fill="#1e1e2eb2" stroke="none"></circle><circle r="8.710526315789474" cx="800.0000000000001" cy="755.5555555555557" fill="#1e1e2eb2" stroke="none"></circle><circle r="8.710526315789474" cx="0" cy="800.0000000000001" fill="#1e1e2eb2" stroke="none"></circle><circle r="8.710526315789474" cx="72.72727272727273" cy="800.0000000000001" fill="#1e1e2eb2" stroke="none"></circle><circle r="8.710526315789474" cx="145.45454545454547" cy="800.0000000000001" fill="#1e1e2eb2" stroke="none"></circle><circle r="8.710526315789474" cx="218.1818181818182" cy="800.0000000000001" fill="#1e1e2eb2" stroke="none"></circle><circle r="8.710526315789474" cx="290.90909090909093" cy="800.0000000000001" fill="#1e1e2eb2" stroke="none"></circle><circle r="8.710526315789474" cx="363.6363636363637" cy="800.0000000000001" fill="#1e1e2eb2" stroke="none"></circle><circle r="8.710526315789474" cx="436.36363636363643" cy="800.0000000000001" fill="#1e1e2eb2" stroke="none"></circle><circle r="8.710526315789474" cx="509.0909090909092" cy="800.0000000000001" fill="#1e1e2eb2" stroke="none"></circle><circle r="8.710526315789474" cx="581.8181818181819" cy="800.0000000000001" fill="#1e1e2eb2" stroke="none"></circle><circle r="8.710526315789474" cx="654.5454545454546" cy="800.0000000000001" fill="#1e1e2eb2" stroke="none"></circle><circle r="8.710526315789474" cx="727.2727272727274" cy="800.0000000000001" fill="#1e1e2eb2" stroke="none"></circle><circle r="8.710526315789474" cx="800.0000000000001" cy="800.0000000000001" fill="#1e1e2eb2" stroke="none"></circle></g></svg>
